<?xml version="1.0" encoding="UTF-8"?>
<svg xmlns="http://www.w3.org/2000/svg" xmlns:xlink="http://www.w3.org/1999/xlink" width="212.64pt" height="138.68pt" viewBox="0 0 212.64 138.68" version="1.1">
<defs>
<clipPath id="clip1">
  <path d="M 0 122 L 8 122 L 8 138.679688 L 0 138.679688 Z M 0 122 "/>
</clipPath>
<clipPath id="clip2">
  <path d="M 43 122 L 51 122 L 51 138.679688 L 43 138.679688 Z M 43 122 "/>
</clipPath>
<clipPath id="clip3">
  <path d="M 8 122 L 16 122 L 16 138.679688 L 8 138.679688 Z M 8 122 "/>
</clipPath>
<clipPath id="clip4">
  <path d="M 35 122 L 43 122 L 43 138.679688 L 35 138.679688 Z M 35 122 "/>
</clipPath>
<clipPath id="clip5">
  <path d="M 20 122 L 29 122 L 29 138.679688 L 20 138.679688 Z M 20 122 "/>
</clipPath>
<clipPath id="clip6">
  <path d="M 28 122 L 35 122 L 35 138.679688 L 28 138.679688 Z M 28 122 "/>
</clipPath>
<clipPath id="clip7">
  <path d="M 62 122 L 70 122 L 70 138.679688 L 62 138.679688 Z M 62 122 "/>
</clipPath>
<clipPath id="clip8">
  <path d="M 55 122 L 63 122 L 63 138.679688 L 55 138.679688 Z M 55 122 "/>
</clipPath>
<clipPath id="clip9">
  <path d="M 16 122 L 20 122 L 20 138.679688 L 16 138.679688 Z M 16 122 "/>
</clipPath>
<clipPath id="clip10">
  <path d="M 51 122 L 55 122 L 55 138.679688 L 51 138.679688 Z M 51 122 "/>
</clipPath>
<clipPath id="clip11">
  <path d="M 206 58 L 212.640625 58 L 212.640625 68 L 206 68 Z M 206 58 "/>
</clipPath>
</defs>
<g id="surface1">
<path style=" stroke:none;fill-rule:nonzero;fill:rgb(13.299561%,19.599915%,41.598511%);fill-opacity:1;" d="M 133.253906 69.914063 C 133.347656 69.894531 133.398438 69.898438 133.433594 69.878906 C 133.9375 69.574219 134.441406 69.273438 134.945313 68.96875 C 135.128906 68.855469 135.0625 68.71875 134.984375 68.574219 C 134.425781 67.5625 134.425781 67.5625 133.371094 68.113281 C 133.199219 68.203125 133.039063 68.320313 132.875 68.425781 C 132.707031 68.527344 132.410156 68.527344 132.570313 68.867188 C 132.75 69.261719 133.003906 69.597656 133.253906 69.914063 M 139.609375 76.101563 C 139.257813 75.496094 138.945313 74.921875 138.597656 74.367188 C 137.75 73.003906 136.886719 71.644531 136.03125 70.285156 C 135.476563 69.402344 135.351563 68.933594 134.347656 69.816406 C 134.300781 69.855469 134.234375 69.878906 134.175781 69.90625 C 133.394531 70.246094 133.40625 70.289063 133.859375 71.003906 C 134.625 72.199219 135.347656 73.421875 136.085938 74.632813 C 136.574219 75.433594 137.171875 76.164063 137.566406 77.023438 C 137.683594 77.273438 137.921875 77.214844 138.078125 77.09375 C 138.558594 76.707031 139.25 76.632813 139.609375 76.101563 M 108.417969 103.691406 C 108.390625 103.417969 108.21875 103.320313 108.054688 103.203125 C 106.785156 102.316406 105.523438 101.417969 104.253906 100.535156 C 103.015625 99.675781 101.765625 98.835938 100.53125 97.96875 C 100.226563 97.753906 100.003906 97.820313 99.804688 98.066406 C 99.5625 98.375 99.363281 98.714844 99.121094 99.019531 C 98.839844 99.371094 98.976563 99.617188 99.289063 99.824219 C 101.851563 101.496094 104.328125 103.289063 106.824219 105.050781 C 106.96875 105.152344 107.113281 105.261719 107.308594 105.179688 C 107.476563 105.105469 108.414063 103.8125 108.417969 103.691406 M 103.0625 94.101563 C 102.96875 94.183594 102.863281 94.253906 102.785156 94.347656 C 102.511719 94.660156 102.285156 95.023438 101.972656 95.292969 C 101.574219 95.640625 101.800781 95.847656 102.074219 96.050781 C 102.648438 96.476563 103.25 96.871094 103.820313 97.304688 C 105.730469 98.746094 107.632813 100.195313 109.53125 101.652344 C 109.714844 101.796875 109.882813 101.886719 110.042969 101.699219 C 110.386719 101.304688 110.703125 100.886719 111.027344 100.476563 C 111.195313 100.265625 111.1875 100.109375 110.945313 99.9375 C 108.671875 98.304688 106.449219 96.605469 104.242188 94.886719 C 103.882813 94.609375 103.484375 94.378906 103.0625 94.101563 M 95.472656 120.953125 C 95.5 120.902344 95.527344 120.851563 95.554688 120.800781 C 96.015625 120.847656 96.476563 120.875 96.933594 120.949219 C 97.371094 121.019531 97.6875 121.003906 97.835938 120.472656 C 97.941406 120.082031 98.164063 119.703125 98.410156 119.371094 C 98.722656 118.949219 98.515625 118.910156 98.144531 118.890625 C 96.882813 118.828125 95.625 118.78125 94.375 118.589844 C 94.046875 118.539063 93.792969 118.429688 93.566406 118.195313 C 93.019531 117.632813 92.488281 117.046875 91.886719 116.542969 C 91.558594 116.273438 91.316406 115.628906 90.90625 115.792969 C 90.570313 115.929688 90.433594 116.535156 90.207031 116.929688 C 89.988281 117.296875 90.058594 117.589844 90.421875 117.820313 C 90.800781 118.0625 91.140625 118.351563 91.433594 118.753906 C 90.894531 118.839844 90.457031 118.683594 90.007813 118.582031 C 89.738281 118.523438 89.460938 118.484375 89.304688 118.777344 C 89.074219 119.222656 88.867188 119.679688 88.640625 120.128906 C 88.496094 120.421875 88.542969 120.523438 88.902344 120.582031 C 90.019531 120.777344 91.15625 120.695313 92.277344 120.8125 C 92.5625 120.839844 92.777344 120.898438 93.007813 121.152344 C 93.847656 122.09375 94.757813 122.972656 95.628906 123.886719 C 95.875 124.148438 96.023438 124.203125 96.179688 123.8125 C 96.324219 123.445313 96.511719 123.097656 96.699219 122.75 C 96.890625 122.40625 96.847656 122.148438 96.527344 121.898438 C 96.15625 121.609375 95.824219 121.269531 95.472656 120.953125 M 101.539063 113.632813 C 101.503906 113.191406 101.46875 112.886719 101.175781 112.597656 C 100.585938 112.011719 99.820313 111.738281 99.136719 111.324219 C 99.003906 111.246094 98.859375 111.246094 98.78125 111.375 C 98.453125 111.90625 97.984375 112.425781 97.890625 113.003906 C 97.84375 113.285156 98.613281 113.507813 99.03125 113.726563 C 99.164063 113.796875 99.261719 113.9375 99.398438 113.992188 C 99.648438 114.097656 99.875 114.230469 99.71875 114.519531 C 99.558594 114.808594 99.296875 114.679688 99.082031 114.558594 C 97.664063 113.78125 96.25 113.003906 94.839844 112.222656 C 94.644531 112.113281 94.433594 111.992188 94.636719 111.710938 C 94.8125 111.46875 94.96875 111.445313 95.238281 111.628906 C 95.667969 111.921875 96.152344 112.144531 96.605469 112.40625 C 96.738281 112.480469 96.867188 112.640625 96.992188 112.441406 C 97.304688 111.941406 97.683594 111.472656 97.863281 110.902344 C 97.9375 110.671875 97.777344 110.539063 97.589844 110.441406 C 97.042969 110.15625 96.511719 109.84375 95.945313 109.597656 C 95.5625 109.429688 95.175781 109.460938 94.753906 109.664063 C 93.839844 110.105469 93.457031 110.949219 93.082031 111.761719 C 92.628906 112.734375 92.914063 113.660156 93.664063 114.0625 C 95.089844 114.828125 96.511719 115.601563 97.910156 116.414063 C 98.53125 116.773438 99.265625 116.863281 99.867188 116.410156 C 100.808594 115.699219 101.296875 114.679688 101.539063 113.632813 M 122.644531 87.675781 C 123.71875 87.679688 124.347656 86.996094 125.019531 86.414063 C 125.476563 86.023438 125.777344 85.496094 125.820313 84.882813 C 125.851563 84.449219 124.480469 82.503906 124.085938 82.535156 C 123.570313 82.574219 123.246094 83.082031 122.84375 83.398438 C 122.808594 83.425781 122.761719 83.4375 122.734375 83.46875 C 122.492188 83.722656 122.386719 83.945313 122.726563 84.238281 C 123.050781 84.519531 123.324219 84.863281 123.59375 85.203125 C 123.714844 85.347656 124.007813 85.507813 123.738281 85.738281 C 123.480469 85.960938 123.242188 85.8125 123.046875 85.601563 C 122.632813 85.15625 122.21875 84.714844 121.804688 84.265625 C 121.164063 83.5625 120.511719 82.863281 119.886719 82.144531 C 119.742188 81.976563 119.554688 81.71875 119.824219 81.507813 C 120.078125 81.308594 120.253906 81.503906 120.421875 81.703125 C 120.683594 82.023438 120.972656 82.316406 121.246094 82.625 C 121.535156 82.949219 121.835938 83.042969 122.1875 82.710938 C 122.460938 82.457031 122.730469 82.199219 123.023438 81.972656 C 123.292969 81.761719 123.308594 81.597656 123.078125 81.332031 C 122.664063 80.855469 122.234375 80.398438 121.769531 79.96875 C 121.339844 79.566406 120.832031 79.449219 120.304688 79.675781 C 119.410156 80.054688 118.660156 80.644531 118.0625 81.414063 C 117.621094 81.984375 117.632813 82.855469 118.121094 83.410156 C 119.246094 84.683594 120.382813 85.949219 121.554688 87.1875 C 121.898438 87.550781 122.269531 87.648438 122.644531 87.675781 M 178.136719 59.84375 C 178.121094 59.625 178.078125 59.402344 178.089844 59.1875 C 178.144531 58.207031 177.363281 57.636719 176.53125 57.574219 C 175.820313 57.519531 175.109375 57.554688 174.414063 57.695313 C 173.367188 57.910156 172.777344 58.65625 172.941406 59.6875 C 173.179688 61.1875 173.230469 62.703125 173.386719 64.210938 C 173.484375 65.175781 174.03125 65.707031 175.003906 65.792969 C 175.621094 65.847656 176.242188 65.828125 176.859375 65.71875 C 178.066406 65.507813 178.703125 64.875 178.550781 63.609375 C 178.335938 61.847656 178.386719 61.855469 176.617188 62.050781 C 176.222656 62.09375 176.144531 62.246094 176.1875 62.597656 C 176.242188 63.078125 176.261719 63.5625 176.285156 64.042969 C 176.300781 64.269531 176.273438 64.535156 176.007813 64.558594 C 175.726563 64.582031 175.683594 64.316406 175.660156 64.09375 C 175.574219 63.175781 175.496094 62.261719 175.328125 61.351563 C 175.214844 60.726563 175.222656 60.082031 175.171875 59.445313 C 175.152344 59.195313 175.140625 58.914063 175.476563 58.902344 C 175.753906 58.890625 175.816406 59.132813 175.828125 59.367188 C 175.839844 59.589844 175.851563 59.808594 175.878906 60.027344 C 176 61.136719 176 61.144531 177.09375 61.070313 C 178.53125 60.96875 178.199219 61.121094 178.136719 59.84375 M 141.789063 66.09375 C 141.28125 66.097656 140.820313 66.117188 140.542969 66.371094 C 139.808594 67.035156 138.835938 67.195313 138.019531 67.667969 C 137.742188 67.828125 137.640625 67.902344 137.824219 68.246094 C 139.019531 70.453125 140.183594 72.675781 141.347656 74.898438 C 141.445313 75.089844 141.542969 75.175781 141.753906 75.0625 C 142.273438 74.785156 142.792969 74.511719 143.316406 74.234375 C 143.453125 74.164063 143.503906 74.105469 143.410156 73.9375 C 142.433594 72.171875 141.472656 70.394531 140.503906 68.625 C 140.371094 68.386719 140.191406 68.140625 140.503906 67.941406 C 140.816406 67.738281 141.003906 68.011719 141.121094 68.226563 C 141.503906 68.910156 141.84375 69.613281 142.214844 70.300781 C 142.785156 71.355469 143.371094 72.398438 143.9375 73.453125 C 144.039063 73.644531 144.117188 73.84375 144.367188 73.722656 C 144.894531 73.46875 145.417969 73.195313 145.929688 72.90625 C 146.097656 72.808594 146.019531 72.636719 145.945313 72.492188 C 145.003906 70.753906 144.09375 68.996094 143.113281 67.277344 C 142.804688 66.734375 142.636719 65.914063 141.789063 66.09375 M 121.054688 89.746094 C 120.96875 89.667969 120.90625 89.617188 120.847656 89.558594 C 119.300781 88.082031 117.730469 86.625 116.21875 85.113281 C 115.296875 84.191406 114.441406 84.371094 113.761719 85.226563 C 113.183594 85.949219 112.417969 86.429688 111.824219 87.113281 C 111.503906 87.480469 111.496094 87.675781 111.863281 88.015625 C 113.382813 89.421875 114.894531 90.84375 116.367188 92.300781 C 117.355469 93.285156 117.324219 93.316406 118.359375 92.339844 C 118.40625 92.292969 118.464844 92.261719 118.519531 92.222656 C 118.921875 91.90625 118.90625 91.660156 118.507813 91.289063 C 117.097656 89.972656 115.734375 88.609375 114.347656 87.273438 C 114.171875 87.105469 113.886719 86.96875 114.144531 86.707031 C 114.367188 86.480469 114.644531 86.605469 114.84375 86.804688 C 116.1875 88.121094 117.523438 89.453125 118.867188 90.769531 C 119.210938 91.105469 119.558594 91.386719 119.984375 90.824219 C 120.226563 90.5 120.550781 90.234375 120.839844 89.941406 C 120.898438 89.882813 120.960938 89.828125 121.054688 89.746094 M 169.609375 58.179688 C 169.179688 58.273438 168.75 58.386719 168.316406 58.453125 C 168.023438 58.5 167.949219 58.644531 167.996094 58.90625 C 168.105469 59.550781 168.167969 60.203125 168.300781 60.851563 C 168.578125 62.203125 168.773438 63.570313 168.996094 64.933594 C 169.027344 65.113281 169.011719 65.289063 168.789063 65.355469 C 168.554688 65.421875 168.398438 65.3125 168.320313 65.101563 C 168.261719 64.941406 168.21875 64.769531 168.191406 64.597656 C 167.949219 63.082031 167.738281 61.558594 167.472656 60.050781 C 167.15625 58.253906 167.335938 58.585938 165.617188 58.882813 C 165.109375 58.96875 165.054688 59.191406 165.132813 59.636719 C 165.476563 61.554688 165.890625 63.46875 166.074219 65.402344 C 166.183594 66.53125 167.144531 67.132813 168.148438 66.800781 C 169.058594 66.496094 170.015625 66.371094 170.96875 66.269531 C 171.414063 66.222656 171.429688 66.039063 171.390625 65.675781 C 171.324219 65.039063 171.113281 64.4375 171.035156 63.808594 C 170.820313 62.136719 170.402344 60.492188 170.261719 58.808594 C 170.230469 58.441406 170.144531 58.074219 169.609375 58.179688 M 162.652344 67.714844 C 162.875 67.679688 163.136719 67.636719 163.398438 67.589844 C 164.3125 67.429688 164.316406 67.371094 164.089844 66.472656 C 163.472656 64.007813 162.855469 61.542969 162.304688 59.0625 C 161.96875 57.554688 162.035156 57.582031 160.535156 57.921875 C 159.929688 58.058594 159.777344 58.277344 159.949219 58.832031 C 160.066406 59.203125 160.308594 59.6875 160.167969 59.949219 C 160.007813 60.253906 159.4375 59.984375 159.066406 60.113281 C 159.003906 60.136719 158.929688 60.128906 158.867188 60.152344 C 157.753906 60.59375 157.386719 61.019531 157.65625 61.960938 C 158.027344 63.246094 158.335938 64.542969 158.59375 65.855469 C 158.714844 66.476563 158.851563 67.125 159.15625 67.664063 C 159.539063 68.347656 161.117188 68.421875 161.953125 67.894531 C 162.15625 67.765625 162.332031 67.574219 162.652344 67.714844 M 129.949219 77.773438 L 129.933594 77.757813 C 129.332031 77.128906 128.820313 76.429688 128.324219 75.71875 C 127.917969 75.136719 127.316406 74.898438 126.609375 75.007813 C 125.757813 75.136719 125.136719 75.644531 124.515625 76.160156 C 123.597656 76.925781 123.492188 78.015625 124.269531 78.914063 C 125.226563 80.015625 126.105469 81.179688 126.980469 82.339844 C 127.367188 82.851563 127.886719 83.199219 128.496094 83.109375 C 129.804688 82.90625 130.792969 82.164063 131.472656 81.035156 C 131.703125 80.644531 131.710938 80.234375 131.457031 79.855469 C 131.105469 79.335938 130.726563 78.839844 130.359375 78.332031 C 130.324219 78.148438 130.234375 78.023438 130.042969 77.984375 C 130.011719 77.914063 129.980469 77.84375 129.949219 77.773438 M 155.84375 64.566406 C 155.917969 64.328125 155.878906 64.132813 155.648438 64 C 155.492188 63.570313 155.320313 63.148438 155.1875 62.714844 C 155.03125 62.199219 154.707031 61.871094 154.179688 61.792969 C 153.171875 61.644531 152.191406 61.773438 151.300781 62.273438 C 150.269531 62.851563 150.035156 63.367188 150.363281 64.488281 C 150.824219 66.054688 151.339844 67.609375 151.839844 69.167969 C 151.957031 69.539063 152.242188 69.785156 152.597656 69.921875 C 153.59375 70.296875 155.917969 69.863281 156.675781 68.613281 C 157.132813 68.277344 157.074219 67.921875 156.710938 67.558594 C 156.695313 67.453125 156.679688 67.347656 156.664063 67.242188 C 156.753906 66.316406 155.945313 65.597656 156.050781 64.664063 C 156.050781 64.636719 155.90625 64.589844 155.832031 64.550781 Z M 102.65625 104.914063 L 102.671875 104.925781 C 102.621094 104.878906 102.574219 104.828125 102.523438 104.78125 L 102.539063 104.796875 C 102.488281 104.632813 102.351563 104.640625 102.222656 104.632813 C 101.589844 104.25 100.949219 103.878906 100.320313 103.480469 C 99.714844 103.101563 99.175781 103.140625 98.546875 103.515625 C 97.980469 103.855469 97.648438 104.351563 97.339844 104.863281 C 96.390625 106.4375 96.597656 107.105469 98.179688 108.050781 C 99.324219 108.734375 100.460938 109.429688 101.570313 110.171875 C 102.351563 110.691406 103.199219 110.671875 103.925781 110.074219 C 104.539063 109.566406 104.894531 108.890625 105.234375 108.214844 C 105.648438 107.398438 105.316406 106.558594 104.519531 106.097656 C 104.105469 105.855469 103.667969 105.644531 103.34375 105.277344 C 103.238281 105.140625 103.089844 105.167969 102.945313 105.164063 C 102.855469 105.160156 102.8125 105.113281 102.816406 105.023438 C 102.761719 104.988281 102.710938 104.949219 102.65625 104.914063 M 113.851563 93.023438 C 113.804688 92.980469 113.761719 92.9375 113.714844 92.894531 C 113.65625 92.847656 113.597656 92.800781 113.539063 92.753906 C 113.394531 92.671875 113.449219 92.296875 113.128906 92.480469 C 112.375 91.824219 111.652344 91.132813 110.859375 90.527344 C 110.390625 90.167969 109.84375 89.972656 109.191406 90.28125 C 108.359375 90.671875 107.761719 91.285156 107.289063 92.027344 C 106.492188 93.28125 106.933594 93.859375 107.71875 94.527344 C 108.894531 95.527344 110.074219 96.527344 111.273438 97.5 C 111.75 97.882813 112.332031 98.140625 112.929688 97.847656 C 113.703125 97.46875 114.355469 96.90625 114.828125 96.179688 C 115.40625 95.285156 115.441406 94.574219 114.902344 93.9375 C 114.640625 93.628906 114.292969 93.390625 113.980469 93.121094 C 113.941406 93.089844 113.898438 93.058594 113.855469 93.027344 Z M 91.523438 124.425781 L 91.511719 124.414063 C 91.453125 124.382813 91.390625 124.347656 91.332031 124.3125 C 90.503906 124.152344 89.753906 123.777344 88.992188 123.441406 C 88.273438 123.125 87.664063 123.234375 87.125 123.796875 C 86.515625 124.433594 86.207031 125.226563 85.96875 126.039063 C 85.753906 126.757813 86.089844 127.582031 86.652344 127.871094 C 87.058594 128.082031 87.476563 128.269531 87.910156 128.433594 C 89.019531 128.84375 90.117188 129.289063 91.195313 129.769531 C 92.367188 130.292969 93.417969 129.921875 94.023438 128.804688 C 94.3125 128.269531 94.457031 127.714844 94.609375 127.144531 C 94.78125 126.480469 94.503906 125.789063 93.910156 125.488281 C 93.519531 125.285156 93.105469 125.125 92.707031 124.945313 C 92.636719 124.902344 92.566406 124.855469 92.496094 124.808594 L 92.449219 124.800781 L 92.441406 124.753906 C 92.253906 124.515625 91.972656 124.578125 91.71875 124.539063 L 91.671875 124.550781 L 91.644531 124.511719 C 91.605469 124.484375 91.5625 124.453125 91.523438 124.425781 M 136.597656 0 C 138.011719 1.230469 139.550781 2.292969 141.03125 3.433594 C 143.457031 5.300781 145.894531 7.152344 148.335938 9.003906 C 150.347656 10.527344 152.382813 12.027344 154.390625 13.554688 C 156.304688 15.007813 158.191406 16.492188 160.101563 17.949219 C 161.695313 19.160156 163.316406 20.34375 164.910156 21.554688 C 167.289063 23.363281 169.648438 25.191406 172.027344 26.996094 C 174.058594 28.539063 176.109375 30.050781 178.144531 31.585938 C 180.039063 33.015625 181.929688 34.457031 183.820313 35.898438 C 183.921875 35.976563 183.996094 36.09375 184.082031 36.191406 C 184.191406 36.445313 184.359375 36.648438 184.359375 36.96875 C 184.34375 43.441406 184.34375 49.917969 184.359375 56.394531 C 184.359375 56.902344 184.183594 57.015625 183.703125 57.015625 C 183.214844 57.019531 182.691406 56.847656 182.222656 57.136719 C 182.085938 57.136719 181.941406 57.109375 181.832031 57.222656 C 181.039063 57.578125 180.683594 58.175781 180.78125 59.039063 C 180.820313 59.363281 180.820313 59.695313 180.808594 60.023438 C 180.789063 60.382813 180.964844 60.464844 181.289063 60.453125 C 181.757813 60.433594 182.226563 60.449219 182.78125 60.449219 C 182.125 61.050781 181.199219 61.195313 180.855469 62.023438 C 180.695313 62.8125 180.6875 63.601563 180.863281 64.386719 C 180.917969 64.558594 180.976563 64.730469 181.03125 64.902344 C 181.027344 65.097656 181.128906 65.183594 181.320313 65.171875 C 181.414063 65.214844 181.507813 65.261719 181.597656 65.304688 C 181.625 65.308594 181.652344 65.316406 181.683594 65.316406 L 181.6875 65.320313 C 182.324219 65.550781 182.972656 65.488281 183.617188 65.351563 C 184.125 65.246094 184.363281 65.394531 184.355469 65.945313 C 184.335938 66.972656 184.355469 68 184.363281 69.027344 L 184.367188 69.019531 C 184.316406 69.058594 184.265625 69.09375 184.214844 69.132813 C 184.085938 69.136719 183.949219 69.140625 183.820313 69.144531 C 183.335938 69.25 182.78125 68.898438 182.351563 69.359375 C 182.003906 69.375 181.65625 69.394531 181.308594 69.414063 C 179.953125 69.378906 178.609375 69.441406 177.308594 69.886719 C 175.71875 70.019531 174.148438 70.296875 172.585938 70.59375 C 170.078125 71.074219 167.566406 71.542969 165.089844 72.191406 C 163.664063 72.566406 162.226563 72.914063 160.816406 73.355469 C 159.167969 73.875 157.519531 74.398438 155.890625 74.992188 C 154.46875 75.515625 153.066406 76.074219 151.65625 76.625 C 150.042969 77.253906 148.480469 78.003906 146.914063 78.738281 C 145.109375 79.589844 143.359375 80.539063 141.621094 81.507813 C 140.175781 82.3125 138.78125 83.203125 137.386719 84.105469 C 135.699219 85.191406 134.046875 86.316406 132.441406 87.519531 C 128.800781 90.246094 125.378906 93.21875 122.179688 96.453125 C 120.597656 98.054688 119.066406 99.707031 117.597656 101.40625 C 115.996094 103.269531 114.484375 105.207031 113.027344 107.191406 C 111.390625 109.425781 109.863281 111.730469 108.40625 114.082031 C 107.128906 116.140625 105.964844 118.269531 104.847656 120.417969 C 103.75 122.523438 102.726563 124.664063 101.78125 126.839844 C 101.140625 128.324219 100.621094 129.859375 100.023438 131.359375 C 99.488281 132.699219 99.074219 134.078125 98.65625 135.460938 C 98.523438 135.898438 98.613281 136.058594 99.09375 136.027344 C 99.621094 135.996094 100.15625 136.023438 100.6875 136.023438 C 125.425781 136.023438 150.160156 136.023438 174.898438 136.015625 C 175.253906 136.015625 175.800781 136.222656 175.929688 135.859375 C 176.058594 135.492188 175.808594 134.996094 175.546875 134.648438 C 174.976563 133.90625 174.3125 133.230469 173.503906 132.746094 C 172.824219 132.339844 173.15625 131.789063 173.195313 131.285156 C 173.234375 130.816406 173.664063 130.96875 173.9375 130.945313 C 175.695313 130.785156 175.703125 130.789063 176.554688 132.414063 C 177.265625 133.765625 177.960938 135.121094 178.660156 136.476563 C 178.796875 136.738281 180.089844 137.320313 180.332031 137.21875 C 180.523438 137.140625 180.53125 136.941406 180.578125 136.78125 C 180.777344 136.09375 180.8125 135.402344 180.691406 134.695313 C 180.605469 134.195313 180.546875 133.695313 180.488281 133.191406 C 180.449219 132.839844 180.355469 132.546875 180.117188 132.246094 C 179.527344 131.5 179.554688 130.65625 179.816406 129.765625 C 180.097656 128.816406 180.832031 128.074219 180.960938 127.058594 C 181.105469 125.898438 181.03125 124.808594 180.4375 123.753906 C 179.945313 122.871094 179.09375 122.625 178.25 122.347656 C 177.480469 122.09375 176.6875 121.902344 175.902344 121.691406 C 175.242188 121.515625 175.070313 121.191406 175.371094 120.601563 C 175.976563 119.417969 177.035156 118.699219 178.167969 118.128906 C 178.632813 117.894531 179.105469 118.402344 179.558594 118.582031 C 181.011719 119.152344 182.425781 119.8125 183.871094 120.394531 C 184.285156 120.558594 184.464844 120.75 184.464844 121.199219 C 184.453125 126.605469 184.453125 132.015625 184.464844 137.425781 C 184.46875 137.855469 184.332031 137.992188 183.894531 137.988281 C 182.234375 137.964844 180.570313 137.980469 178.90625 137.980469 C 147.164063 137.980469 115.425781 137.980469 83.683594 137.980469 C 83.394531 137.980469 83.105469 137.964844 82.820313 137.980469 C 82.480469 138.003906 82.316406 137.886719 82.355469 137.53125 C 82.367188 137.421875 82.355469 137.3125 82.355469 137.203125 C 82.355469 103.183594 82.355469 69.167969 82.355469 35.148438 C 82.355469 33.6875 82.367188 33.703125 83.5625 32.960938 C 85.773438 31.589844 87.964844 30.1875 90.171875 28.8125 C 92.617188 27.292969 95.082031 25.804688 97.523438 24.277344 C 100.09375 22.671875 102.640625 21.027344 105.207031 19.410156 C 107.054688 18.246094 108.917969 17.105469 110.765625 15.941406 C 112.996094 14.535156 115.253906 13.171875 117.464844 11.730469 C 119.609375 10.335938 121.828125 9.058594 124 7.707031 C 125.890625 6.527344 127.753906 5.300781 129.640625 4.117188 C 131.789063 2.765625 133.953125 1.4375 136.109375 0.09375 C 136.144531 0.0742188 136.171875 0.03125 136.199219 0 "/>
<g clip-path="url(#clip1)" clip-rule="nonzero">
<path style=" stroke:none;fill-rule:nonzero;fill:rgb(13.299561%,19.599915%,41.598511%);fill-opacity:1;" d="M 0 122.847656 C 0.839844 122.832031 1.683594 122.847656 2.519531 122.800781 C 3.007813 122.773438 3.101563 122.953125 3.101563 123.398438 C 3.082031 126.429688 3.089844 129.464844 3.089844 132.496094 C 3.089844 133.375 3.070313 134.257813 3.101563 135.136719 C 3.109375 135.453125 3 135.945313 3.515625 135.957031 C 4.042969 135.964844 3.953125 135.476563 3.957031 135.15625 C 3.976563 132.738281 3.972656 130.320313 3.976563 127.902344 C 3.980469 126.386719 3.992188 124.871094 3.96875 123.355469 C 3.960938 122.917969 4.097656 122.78125 4.535156 122.800781 C 5.21875 122.835938 5.90625 122.828125 6.59375 122.804688 C 6.988281 122.789063 7.140625 122.90625 7.140625 123.320313 C 7.125 126.949219 7.164063 130.574219 7.109375 134.203125 C 7.09375 135.117188 7.117188 136.074219 6.585938 136.945313 C 6.128906 137.691406 5.597656 138.261719 4.726563 138.46875 C 4.613281 138.492188 4.519531 138.539063 4.523438 138.679688 L 2.925781 138.679688 C 2.328125 138.332031 1.621094 138.230469 1.078125 137.722656 C 0.519531 137.207031 0.328125 136.527344 0 135.910156 "/>
</g>
<g clip-path="url(#clip2)" clip-rule="nonzero">
<path style=" stroke:none;fill-rule:nonzero;fill:rgb(13.299561%,19.599915%,41.598511%);fill-opacity:1;" d="M 46.019531 138.679688 C 45.984375 138.347656 45.679688 138.472656 45.5 138.390625 C 44.558594 137.964844 43.804688 137.398438 43.601563 136.296875 C 43.414063 135.277344 43.300781 134.257813 43.3125 133.21875 C 43.316406 132.859375 43.398438 132.703125 43.792969 132.71875 C 44.433594 132.746094 45.078125 132.746094 45.71875 132.71875 C 46.121094 132.703125 46.273438 132.828125 46.257813 133.238281 C 46.230469 133.875 46.25 134.515625 46.269531 135.152344 C 46.28125 135.535156 46.339844 135.96875 46.835938 135.960938 C 47.316406 135.957031 47.375 135.527344 47.441406 135.148438 C 47.699219 133.65625 47.042969 132.589844 45.882813 131.734375 C 45.464844 131.421875 45.085938 131.0625 44.691406 130.722656 C 44.015625 130.148438 43.609375 129.421875 43.429688 128.558594 C 43.109375 126.972656 43.121094 125.414063 43.769531 123.90625 C 43.992188 123.386719 44.492188 123.09375 44.96875 122.835938 C 46.316406 122.097656 48.726563 122.582031 49.632813 123.785156 C 50.113281 124.421875 50.148438 125.226563 50.195313 125.984375 C 50.296875 127.535156 50.273438 127.535156 48.738281 127.535156 C 47.226563 127.535156 47.238281 127.535156 47.183594 126.042969 C 47.171875 125.699219 47.28125 125.164063 46.753906 125.171875 C 46.285156 125.179688 46.242188 125.675781 46.179688 126.082031 C 45.972656 127.4375 46.84375 128.164063 47.796875 128.832031 C 49.605469 130.09375 50.601563 131.742188 50.4375 134 C 50.382813 134.722656 50.433594 135.449219 50.320313 136.167969 C 50.136719 137.335938 49.371094 137.980469 48.34375 138.398438 C 48.171875 138.46875 47.921875 138.402344 47.882813 138.679688 "/>
</g>
<path style=" stroke:none;fill-rule:nonzero;fill:rgb(13.299561%,19.599915%,41.598511%);fill-opacity:1;" d="M 7.53125 103.878906 C 7.53125 103.855469 7.542969 103.832031 7.535156 103.816406 C 7.511719 103.761719 7.484375 103.769531 7.46875 103.832031 C 7.46875 103.851563 7.480469 103.871094 7.488281 103.890625 C 7.5 103.886719 7.515625 103.882813 7.53125 103.878906 M 12.339844 99.097656 C 12.253906 100.398438 12.207031 101.625 12.082031 102.84375 C 11.625 107.367188 11.414063 111.914063 10.890625 116.429688 C 10.828125 116.976563 10.78125 117.527344 10.773438 118.074219 C 10.765625 118.460938 10.640625 118.609375 10.226563 118.609375 C 7.945313 118.589844 5.660156 118.589844 3.378906 118.605469 C 2.902344 118.609375 2.78125 118.40625 2.761719 117.980469 C 2.664063 116.003906 2.570313 114.027344 2.421875 112.054688 C 2.101563 107.828125 1.824219 103.597656 1.488281 99.371094 C 1.308594 97.070313 1.21875 94.765625 1.035156 92.464844 C 0.675781 88.042969 0.351563 83.617188 0.0703125 79.1875 C 0.0390625 78.722656 0.125 78.574219 0.609375 78.582031 C 2.316406 78.605469 4.023438 78.609375 5.730469 78.582031 C 6.195313 78.574219 6.265625 78.753906 6.28125 79.152344 C 6.382813 82.207031 6.425781 85.265625 6.636719 88.308594 C 6.855469 91.378906 6.847656 94.460938 7.070313 97.527344 C 7.199219 99.347656 7.289063 101.167969 7.34375 102.988281 C 7.347656 103.109375 7.304688 103.261719 7.535156 103.34375 C 7.707031 103.007813 7.660156 102.640625 7.675781 102.292969 C 7.792969 99.703125 7.84375 97.109375 8.011719 94.519531 C 8.277344 90.402344 8.59375 86.285156 8.941406 82.167969 C 9.023438 81.164063 9.183594 80.160156 9.199219 79.148438 C 9.203125 78.679688 9.40625 78.578125 9.84375 78.582031 C 11.640625 78.605469 13.433594 78.609375 15.230469 78.582031 C 15.707031 78.574219 15.871094 78.683594 15.890625 79.1875 C 15.972656 81.558594 16.074219 83.929688 16.234375 86.296875 C 16.402344 88.734375 16.359375 91.175781 16.5625 93.605469 C 16.890625 97.460938 16.835938 101.332031 17.128906 105.183594 C 17.136719 105.269531 17.15625 105.351563 17.273438 105.433594 C 17.328125 103.902344 17.347656 102.371094 17.441406 100.84375 C 17.769531 95.339844 18.109375 89.835938 18.464844 84.332031 C 18.578125 82.582031 18.753906 80.832031 18.878906 79.082031 C 18.90625 78.726563 19.007813 78.582031 19.390625 78.585938 C 21.140625 78.601563 22.890625 78.601563 24.644531 78.585938 C 25.039063 78.582031 25.140625 78.730469 25.113281 79.089844 C 24.828125 82.855469 24.554688 86.625 24.28125 90.390625 C 24.242188 90.941406 24.21875 91.488281 24.183594 92.035156 C 23.941406 95.71875 23.71875 99.40625 23.445313 103.085938 C 23.136719 107.203125 22.800781 111.320313 22.558594 115.441406 C 22.507813 116.339844 22.316406 117.226563 22.324219 118.128906 C 22.324219 118.519531 22.140625 118.609375 21.789063 118.609375 C 19.484375 118.597656 17.175781 118.597656 14.871094 118.601563 C 14.554688 118.601563 14.40625 118.519531 14.367188 118.164063 C 14.070313 115.65625 13.785156 113.152344 13.53125 110.636719 C 13.164063 106.941406 12.914063 103.238281 12.601563 99.539063 C 12.589844 99.417969 12.613281 99.273438 12.339844 99.097656 "/>
<path style=" stroke:none;fill-rule:nonzero;fill:rgb(13.299561%,19.599915%,41.598511%);fill-opacity:1;" d="M 25.203125 50.480469 C 25.171875 50.546875 25.144531 50.585938 25.136719 50.628906 C 24.875 53.019531 24.625 55.414063 24.246094 57.792969 C 24.195313 58.121094 24.316406 58.222656 24.632813 58.210938 C 25.03125 58.191406 25.429688 58.207031 25.828125 58.207031 C 26.804688 58.203125 26.769531 58.210938 26.636719 57.265625 C 26.34375 55.140625 25.769531 53.070313 25.445313 50.953125 C 25.417969 50.792969 25.464844 50.589844 25.203125 50.480469 M 25.050781 36.464844 C 26.136719 36.464844 27.222656 36.484375 28.308594 36.457031 C 28.714844 36.449219 28.886719 36.566406 28.960938 36.984375 C 29.457031 39.71875 30.011719 42.449219 30.496094 45.1875 C 30.933594 47.691406 31.460938 50.175781 31.90625 52.679688 C 32.355469 55.222656 32.902344 57.75 33.34375 60.296875 C 33.652344 62.089844 34.015625 63.875 34.335938 65.667969 C 34.835938 68.421875 35.40625 71.167969 35.960938 73.914063 C 36.050781 74.367188 36.019531 74.589844 35.445313 74.582031 C 33.539063 74.546875 31.636719 74.558594 29.730469 74.574219 C 29.28125 74.578125 29.089844 74.40625 29.035156 73.980469 C 28.742188 71.738281 28.125 69.5625 27.746094 67.332031 C 27.570313 66.328125 27.414063 65.300781 27.097656 64.316406 C 27.003906 64.015625 26.894531 63.878906 26.5625 63.890625 C 25.765625 63.90625 24.964844 63.90625 24.167969 63.890625 C 23.84375 63.882813 23.703125 63.972656 23.667969 64.320313 C 23.46875 66.175781 23.320313 68.042969 23.003906 69.878906 C 22.761719 71.285156 22.753906 72.71875 22.425781 74.109375 C 22.34375 74.449219 22.230469 74.578125 21.867188 74.574219 C 19.917969 74.558594 17.964844 74.558594 16.015625 74.578125 C 15.601563 74.582031 15.523438 74.414063 15.59375 74.0625 C 16.015625 71.996094 16.21875 69.902344 16.53125 67.824219 C 16.882813 65.480469 17.183594 63.128906 17.570313 60.792969 C 17.929688 58.628906 18.21875 56.457031 18.539063 54.285156 C 19.015625 51.03125 19.527344 47.78125 19.988281 44.527344 C 20.351563 41.988281 20.773438 39.457031 21.15625 36.921875 C 21.210938 36.5625 21.371094 36.453125 21.726563 36.460938 C 22.835938 36.476563 23.941406 36.464844 25.050781 36.464844 "/>
<path style=" stroke:none;fill-rule:nonzero;fill:rgb(13.299561%,19.599915%,41.598511%);fill-opacity:1;" d="M 42.652344 104.417969 C 43.40625 104.417969 44.160156 104.417969 44.914063 104.417969 C 45.832031 104.414063 45.828125 104.414063 45.835938 105.300781 C 45.851563 107.429688 45.757813 109.5625 46.023438 111.6875 C 46.125 112.5 46.4375 112.757813 47.121094 112.695313 C 47.65625 112.644531 47.863281 112.234375 47.988281 111.824219 C 48.347656 110.628906 48.363281 109.398438 48.292969 108.164063 C 48.265625 107.683594 48.144531 107.207031 48.132813 106.726563 C 48.085938 105.308594 47.269531 104.308594 46.375 103.320313 C 44.816406 101.597656 43.078125 100.046875 41.617188 98.230469 C 40.746094 97.140625 40.25 95.890625 39.925781 94.578125 C 39.171875 91.523438 39.316406 88.421875 39.613281 85.335938 C 39.761719 83.789063 40.160156 82.277344 41.136719 81.003906 C 42.433594 79.316406 44.160156 78.5 46.296875 78.429688 C 48.769531 78.351563 50.898438 79.039063 52.511719 80.972656 C 53.089844 81.664063 53.476563 82.484375 53.671875 83.355469 C 54.210938 85.78125 54.15625 88.246094 54.160156 90.710938 C 54.160156 91.015625 54.0625 91.144531 53.742188 91.144531 C 51.945313 91.136719 50.152344 91.132813 48.355469 91.148438 C 47.925781 91.152344 47.90625 90.921875 47.90625 90.605469 C 47.914063 89.570313 47.90625 88.539063 47.910156 87.503906 C 47.914063 86.863281 47.828125 86.234375 47.621094 85.625 C 47.511719 85.3125 47.328125 85.089844 46.949219 85.101563 C 46.59375 85.113281 46.28125 85.1875 46.148438 85.554688 C 46.003906 85.949219 45.808594 86.335938 45.761719 86.738281 C 45.574219 88.324219 45.582031 89.917969 46.195313 91.417969 C 46.585938 92.371094 47.433594 93.023438 48.183594 93.707031 C 49.808594 95.1875 51.363281 96.734375 52.636719 98.519531 C 53.367188 99.550781 53.910156 100.710938 54.144531 101.980469 C 54.695313 105.003906 54.820313 108.058594 54.601563 111.109375 C 54.5 112.539063 54.402344 113.992188 53.773438 115.347656 C 53.152344 116.679688 52.179688 117.65625 50.949219 118.417969 C 49.347656 119.414063 47.570313 119.601563 45.773438 119.261719 C 43.511719 118.832031 41.847656 117.535156 40.796875 115.46875 C 39.777344 113.464844 39.785156 111.273438 39.609375 109.121094 C 39.5 107.765625 39.585938 106.398438 39.542969 105.035156 C 39.527344 104.53125 39.703125 104.386719 40.191406 104.410156 C 41.011719 104.445313 41.832031 104.417969 42.652344 104.417969 "/>
<path style=" stroke:none;fill-rule:nonzero;fill:rgb(13.299561%,19.599915%,41.598511%);fill-opacity:1;" d="M 52.417969 63.960938 C 52.363281 65.699219 52.40625 67.539063 51.953125 69.359375 C 51.53125 71.058594 50.585938 72.351563 49.128906 73.265625 C 46.667969 74.8125 44.042969 74.820313 41.480469 73.640625 C 40.039063 72.972656 38.964844 71.792969 38.332031 70.257813 C 37.476563 68.171875 37.453125 65.980469 37.386719 63.792969 C 37.355469 62.761719 37.398438 61.726563 37.375 60.695313 C 37.367188 60.296875 37.4375 60.109375 37.914063 60.117188 C 39.640625 60.144531 41.371094 60.136719 43.097656 60.117188 C 43.5 60.113281 43.628906 60.238281 43.625 60.644531 C 43.613281 62.445313 43.621094 64.25 43.648438 66.050781 C 43.65625 66.59375 43.617188 67.171875 43.953125 67.640625 C 44.441406 68.316406 45.257813 68.214844 45.640625 67.457031 C 45.859375 67.023438 46.027344 66.574219 46.027344 66.078125 C 46.015625 64.570313 46.148438 63.058594 45.753906 61.5625 C 45.472656 60.480469 44.71875 59.769531 44.015625 59.007813 C 42.644531 57.515625 41.09375 56.199219 39.734375 54.691406 C 38.472656 53.289063 37.820313 51.628906 37.484375 49.820313 C 37.101563 47.734375 37.023438 45.625 37.226563 43.515625 C 37.355469 42.148438 37.425781 40.757813 37.972656 39.460938 C 38.722656 37.660156 39.953125 36.367188 41.855469 35.726563 C 43.738281 35.097656 45.621094 35.140625 47.4375 35.828125 C 49.609375 36.652344 51.0625 38.132813 51.5 40.53125 C 51.894531 42.671875 51.839844 44.816406 51.886719 46.964844 C 51.898438 47.367188 51.824219 47.546875 51.351563 47.539063 C 49.625 47.511719 47.898438 47.511719 46.167969 47.535156 C 45.714844 47.542969 45.617188 47.390625 45.621094 46.972656 C 45.640625 45.71875 45.632813 44.464844 45.605469 43.214844 C 45.582031 42.269531 45.226563 41.699219 44.691406 41.65625 C 44.15625 41.613281 43.75 42.136719 43.605469 43.078125 C 43.402344 44.394531 43.457031 45.714844 43.695313 47.015625 C 43.886719 48.082031 44.667969 48.792969 45.433594 49.476563 C 47.101563 50.964844 48.769531 52.445313 50.144531 54.21875 C 51.011719 55.34375 51.570313 56.585938 51.894531 57.964844 C 52.355469 59.910156 52.375 61.882813 52.417969 63.960938 "/>
<path style=" stroke:none;fill-rule:nonzero;fill:rgb(13.299561%,19.599915%,41.598511%);fill-opacity:1;" d="M 0.199219 55.429688 C 0.199219 49.292969 0.207031 43.160156 0.1875 37.023438 C 0.183594 36.441406 0.339844 36.289063 0.925781 36.292969 C 5.25 36.320313 9.574219 36.316406 13.894531 36.292969 C 14.460938 36.289063 14.605469 36.460938 14.589844 37.003906 C 14.550781 38.320313 14.550781 39.640625 14.585938 40.960938 C 14.601563 41.492188 14.472656 41.679688 13.898438 41.667969 C 11.859375 41.632813 9.820313 41.667969 7.78125 41.644531 C 7.273438 41.640625 7.097656 41.757813 7.101563 42.300781 C 7.132813 45.003906 7.128906 47.710938 7.105469 50.414063 C 7.101563 50.933594 7.242188 51.097656 7.773438 51.085938 C 9.4375 51.054688 11.101563 51.089844 12.761719 51.066406 C 13.277344 51.054688 13.457031 51.203125 13.445313 51.738281 C 13.40625 53.097656 13.414063 54.464844 13.441406 55.828125 C 13.453125 56.277344 13.285156 56.382813 12.871094 56.378906 C 11.164063 56.367188 9.457031 56.390625 7.75 56.363281 C 7.25 56.351563 7.105469 56.503906 7.105469 56.996094 C 7.121094 60.648438 7.125 64.296875 7.101563 67.949219 C 7.097656 68.46875 7.292969 68.570313 7.757813 68.5625 C 9.753906 68.542969 11.75 68.574219 13.742188 68.546875 C 14.273438 68.539063 14.476563 68.652344 14.460938 69.226563 C 14.417969 70.765625 14.417969 72.304688 14.460938 73.84375 C 14.476563 74.4375 14.273438 74.574219 13.703125 74.570313 C 9.445313 74.546875 5.191406 74.546875 0.933594 74.574219 C 0.347656 74.574219 0.1875 74.414063 0.1875 73.835938 C 0.207031 67.699219 0.199219 61.566406 0.199219 55.429688 "/>
<path style=" stroke:none;fill-rule:nonzero;fill:rgb(13.299561%,19.599915%,41.598511%);fill-opacity:1;" d="M 59.453125 101.207031 C 59.453125 95.648438 59.441406 90.085938 59.464844 84.523438 C 59.46875 83.960938 59.296875 83.8125 58.757813 83.839844 C 57.894531 83.878906 57.027344 83.835938 56.164063 83.859375 C 55.773438 83.871094 55.617188 83.777344 55.625 83.351563 C 55.652344 81.945313 55.652344 80.539063 55.625 79.132813 C 55.617188 78.679688 55.785156 78.582031 56.203125 78.582031 C 60.699219 78.59375 65.199219 78.59375 69.695313 78.582031 C 70.148438 78.582031 70.308594 78.695313 70.292969 79.179688 C 70.253906 80.519531 70.253906 81.863281 70.289063 83.203125 C 70.304688 83.742188 70.113281 83.882813 69.601563 83.859375 C 68.847656 83.824219 68.089844 83.898438 67.339844 83.84375 C 66.722656 83.796875 66.625 84.03125 66.625 84.585938 C 66.640625 94.480469 66.636719 104.371094 66.636719 114.261719 C 66.636719 115.492188 66.609375 116.722656 66.652344 117.953125 C 66.667969 118.496094 66.476563 118.617188 65.96875 118.609375 C 64.039063 118.582031 62.113281 118.578125 60.183594 118.613281 C 59.613281 118.621094 59.433594 118.492188 59.4375 117.890625 C 59.460938 112.328125 59.453125 106.769531 59.453125 101.207031 "/>
<path style=" stroke:none;fill-rule:nonzero;fill:rgb(13.299561%,19.599915%,41.598511%);fill-opacity:1;" d="M 27.09375 98.570313 C 27.09375 92.148438 27.097656 85.730469 27.078125 79.308594 C 27.078125 78.738281 27.199219 78.570313 27.800781 78.578125 C 31.257813 78.609375 34.714844 78.601563 38.171875 78.582031 C 38.640625 78.578125 38.839844 78.664063 38.828125 79.1875 C 38.789063 80.570313 38.800781 81.957031 38.824219 83.34375 C 38.832031 83.746094 38.707031 83.867188 38.296875 83.863281 C 36.636719 83.84375 34.972656 83.871094 33.3125 83.847656 C 32.839844 83.839844 32.710938 83.992188 32.714844 84.449219 C 32.734375 87.371094 32.734375 90.296875 32.710938 93.222656 C 32.707031 93.710938 32.894531 93.808594 33.335938 93.800781 C 34.664063 93.777344 35.992188 93.808594 37.320313 93.78125 C 37.761719 93.773438 37.898438 93.90625 37.890625 94.339844 C 37.867188 95.859375 37.867188 97.375 37.894531 98.890625 C 37.902344 99.339844 37.75 99.453125 37.324219 99.449219 C 35.992188 99.425781 34.664063 99.453125 33.335938 99.429688 C 32.894531 99.421875 32.710938 99.523438 32.714844 100.007813 C 32.734375 103.898438 32.730469 107.792969 32.714844 111.683594 C 32.710938 112.160156 32.875 112.273438 33.324219 112.269531 C 34.898438 112.246094 36.472656 112.277344 38.046875 112.25 C 38.488281 112.242188 38.605469 112.375 38.601563 112.800781 C 38.578125 114.558594 38.578125 116.320313 38.597656 118.078125 C 38.601563 118.480469 38.476563 118.609375 38.070313 118.605469 C 34.589844 118.59375 31.109375 118.585938 27.632813 118.609375 C 27.019531 118.617188 27.089844 118.273438 27.089844 117.894531 C 27.09375 111.453125 27.09375 105.011719 27.09375 98.570313 "/>
<path style=" stroke:none;fill-rule:nonzero;fill:rgb(13.299561%,19.599915%,41.598511%);fill-opacity:1;" d="M 66.636719 57.800781 C 66.636719 63.140625 66.625 68.484375 66.652344 73.824219 C 66.65625 74.445313 66.460938 74.59375 65.867188 74.582031 C 63.984375 74.546875 62.101563 74.542969 60.21875 74.582031 C 59.613281 74.59375 59.433594 74.4375 59.4375 73.820313 C 59.460938 68.019531 59.453125 62.214844 59.453125 56.414063 C 59.453125 51.535156 59.441406 46.652344 59.464844 41.773438 C 59.46875 41.195313 59.324219 41.003906 58.730469 41.039063 C 57.894531 41.089844 57.046875 41.035156 56.207031 41.0625 C 55.792969 41.074219 55.613281 40.976563 55.625 40.519531 C 55.652344 39.246094 55.648438 37.972656 55.628906 36.695313 C 55.621094 36.273438 55.746094 36.128906 56.195313 36.132813 C 60.691406 36.148438 65.1875 36.144531 69.6875 36.132813 C 70.136719 36.132813 70.320313 36.246094 70.308594 36.726563 C 70.28125 37.976563 70.28125 39.230469 70.304688 40.484375 C 70.3125 40.90625 70.183594 41.078125 69.742188 41.0625 C 68.921875 41.035156 68.101563 41.089844 67.285156 41.039063 C 66.734375 41.007813 66.625 41.207031 66.625 41.710938 C 66.644531 47.074219 66.636719 52.4375 66.636719 57.800781 "/>
<path style=" stroke:none;fill-rule:nonzero;fill:rgb(13.299561%,19.599915%,41.598511%);fill-opacity:1;" d="M 184.789063 97.332031 C 184.789063 99.59375 184.789063 101.855469 184.792969 104.121094 C 184.792969 104.453125 184.824219 104.730469 184.3125 104.613281 C 182.429688 104.183594 180.796875 104.867188 179.242188 105.808594 C 179.003906 105.957031 178.757813 106.128906 178.511719 106.246094 C 177.191406 106.855469 177.4375 108.066406 177.394531 109.128906 C 177.316406 110.972656 177.292969 112.820313 177.308594 114.664063 C 177.3125 115.257813 177.214844 115.617188 176.589844 115.835938 C 175.585938 116.191406 174.613281 116.640625 173.628906 117.058594 C 173.230469 117.226563 173.035156 117.113281 172.820313 116.710938 C 171.664063 114.539063 170.488281 112.371094 169.234375 110.25 C 168.28125 108.636719 167.425781 106.96875 166.507813 105.335938 C 166.167969 104.734375 165.785156 104.152344 165.402344 103.574219 C 164.925781 102.855469 165.011719 102.65625 165.742188 102.207031 C 167.378906 101.203125 168.949219 100.101563 170.425781 98.867188 C 171.734375 97.773438 172.964844 96.601563 174.03125 95.28125 C 175.421875 93.558594 176.660156 91.75 177.257813 89.585938 C 177.394531 89.085938 177.628906 88.820313 178.242188 88.933594 C 180.28125 89.304688 182.328125 89.636719 184.382813 89.949219 C 184.800781 90.011719 184.792969 90.238281 184.792969 90.539063 C 184.785156 92.804688 184.789063 95.066406 184.789063 97.332031 "/>
<path style=" stroke:none;fill-rule:nonzero;fill:rgb(13.299561%,19.599915%,41.598511%);fill-opacity:1;" d="M 154.597656 121.925781 C 154.503906 120.90625 154.140625 120.035156 154.121094 119.101563 C 154.113281 118.695313 153.847656 118.570313 153.488281 118.46875 C 152.585938 118.207031 151.699219 117.878906 150.792969 117.632813 C 150.382813 117.519531 150.378906 117.289063 150.460938 116.996094 C 150.796875 115.800781 150.789063 114.5625 150.96875 113.347656 C 151.1875 111.875 151.433594 110.410156 151.664063 108.941406 C 151.699219 108.699219 151.800781 108.554688 152.054688 108.476563 C 154.289063 107.816406 156.429688 106.902344 158.5625 105.980469 C 159.742188 105.472656 160.894531 104.882813 162.03125 104.277344 C 162.539063 104.007813 162.847656 103.96875 163.136719 104.558594 C 163.816406 105.945313 164.542969 107.308594 165.261719 108.675781 C 166.050781 110.175781 166.855469 111.671875 167.65625 113.171875 C 168.410156 114.589844 169.164063 116.007813 169.917969 117.425781 C 170 117.582031 170.082031 117.738281 170.175781 117.882813 C 170.351563 118.15625 170.648438 118.5 170.40625 118.757813 C 170.105469 119.074219 169.796875 119.507813 169.179688 119.328125 C 167.289063 118.769531 165.359375 118.585938 163.40625 118.886719 C 162.015625 119.101563 160.808594 119.679688 159.925781 120.8125 C 159.785156 120.992188 159.691406 121.046875 159.445313 120.945313 C 157.894531 120.296875 156.484375 120.644531 155.179688 121.609375 C 155.023438 121.722656 154.839844 121.796875 154.597656 121.925781 "/>
<g clip-path="url(#clip3)" clip-rule="nonzero">
<path style=" stroke:none;fill-rule:nonzero;fill:rgb(13.299561%,19.599915%,41.598511%);fill-opacity:1;" d="M 12.664063 128.707031 C 12.664063 126.933594 12.679688 125.160156 12.652344 123.386719 C 12.644531 122.917969 12.78125 122.769531 13.246094 122.800781 C 13.773438 122.835938 14.3125 122.847656 14.839844 122.796875 C 15.386719 122.746094 15.382813 123.039063 15.378906 123.429688 C 15.371094 127.476563 15.375 131.523438 15.375 135.570313 C 15.375 136.316406 15.355469 137.066406 15.382813 137.8125 C 15.398438 138.222656 15.246094 138.363281 14.847656 138.332031 C 14.492188 138.304688 14.136719 138.324219 13.78125 138.324219 C 12.496094 138.324219 12.527344 138.320313 12.242188 137.058594 C 11.882813 135.464844 11.597656 133.851563 10.980469 132.289063 C 10.980469 132.535156 10.980469 132.777344 10.980469 133.019531 C 10.980469 134.582031 10.957031 136.144531 10.988281 137.703125 C 11 138.207031 10.835938 138.367188 10.347656 138.332031 C 9.839844 138.300781 9.324219 138.300781 8.820313 138.332031 C 8.394531 138.359375 8.296875 138.191406 8.300781 137.800781 C 8.308594 132.960938 8.3125 128.125 8.300781 123.289063 C 8.300781 122.917969 8.40625 122.78125 8.785156 122.800781 C 9.363281 122.828125 9.9375 122.832031 10.515625 122.800781 C 10.921875 122.777344 11.050781 122.980469 11.128906 123.320313 C 11.492188 124.878906 11.878906 126.429688 12.234375 127.988281 C 12.300781 128.273438 12.464844 128.480469 12.664063 128.707031 "/>
</g>
<g clip-path="url(#clip4)" clip-rule="nonzero">
<path style=" stroke:none;fill-rule:nonzero;fill:rgb(13.299561%,19.599915%,41.598511%);fill-opacity:1;" d="M 38.453125 127.152344 C 38.453125 127.566406 38.445313 127.980469 38.457031 128.394531 C 38.464844 128.570313 38.355469 128.84375 38.644531 128.878906 C 38.902344 128.90625 39.207031 128.847656 39.269531 128.527344 C 39.441406 127.667969 39.429688 126.796875 39.289063 125.929688 C 39.234375 125.59375 38.933594 125.542969 38.683594 125.542969 C 38.320313 125.539063 38.472656 125.855469 38.460938 126.039063 C 38.4375 126.410156 38.453125 126.78125 38.453125 127.152344 M 40.875 130.28125 C 42.074219 130.84375 42.332031 131.789063 42.304688 132.914063 C 42.269531 134.496094 42.277344 136.078125 42.308594 137.660156 C 42.316406 138.152344 42.210938 138.382813 41.660156 138.335938 C 41.113281 138.289063 40.554688 138.296875 40.003906 138.335938 C 39.515625 138.367188 39.359375 138.21875 39.367188 137.714844 C 39.394531 135.980469 39.371094 134.242188 39.355469 132.507813 C 39.355469 132.25 39.328125 131.976563 39.253906 131.730469 C 39.175781 131.484375 38.953125 131.328125 38.691406 131.347656 C 38.339844 131.371094 38.460938 131.671875 38.460938 131.863281 C 38.449219 133.664063 38.453125 135.46875 38.453125 137.269531 C 38.457031 138.328125 38.457031 138.328125 37.417969 138.328125 C 36.929688 138.328125 36.441406 138.292969 35.957031 138.335938 C 35.421875 138.382813 35.285156 138.183594 35.289063 137.667969 C 35.308594 133.183594 35.296875 128.703125 35.300781 124.21875 C 35.300781 122.8125 35.304688 122.804688 36.726563 122.8125 C 37.875 122.820313 39.015625 122.839844 40.167969 122.984375 C 41.308594 123.128906 41.984375 124.164063 42.160156 125.054688 C 42.367188 126.117188 42.296875 127.199219 42.277344 128.273438 C 42.261719 129.21875 41.871094 129.90625 40.875 130.28125 "/>
</g>
<g clip-path="url(#clip5)" clip-rule="nonzero">
<path style=" stroke:none;fill-rule:nonzero;fill:rgb(13.299561%,19.599915%,41.598511%);fill-opacity:1;" d="M 24.453125 132.132813 C 24.484375 131.738281 24.515625 131.347656 24.542969 130.953125 C 24.710938 128.457031 24.886719 125.960938 25.03125 123.464844 C 25.058594 122.980469 25.167969 122.757813 25.714844 122.796875 C 26.421875 122.851563 27.132813 122.835938 27.839844 122.800781 C 28.3125 122.777344 28.441406 122.910156 28.386719 123.390625 C 28.0625 126.335938 27.765625 129.28125 27.464844 132.226563 C 27.277344 134.082031 27.085938 135.9375 26.914063 137.796875 C 26.882813 138.160156 26.808594 138.339844 26.378906 138.332031 C 25.117188 138.304688 23.855469 138.308594 22.59375 138.328125 C 22.1875 138.335938 22.09375 138.1875 22.039063 137.804688 C 21.644531 135.046875 21.339844 132.28125 21.066406 129.507813 C 20.867188 127.476563 20.585938 125.457031 20.308594 123.433594 C 20.242188 122.949219 20.328125 122.761719 20.863281 122.800781 C 21.59375 122.847656 22.328125 122.839844 23.054688 122.800781 C 23.511719 122.773438 23.625 122.96875 23.644531 123.359375 C 23.769531 126.058594 24.164063 128.738281 24.226563 131.441406 C 24.234375 131.671875 24.273438 131.902344 24.296875 132.132813 C 24.351563 132.132813 24.402344 132.132813 24.453125 132.132813 "/>
</g>
<path style=" stroke:none;fill-rule:nonzero;fill:rgb(13.299561%,19.599915%,41.598511%);fill-opacity:1;" d="M 152.300781 104.214844 C 152.695313 101.535156 153.144531 98.566406 153.574219 95.597656 C 153.679688 94.878906 153.75 94.15625 153.824219 93.433594 C 153.863281 93.085938 153.984375 92.875 154.386719 92.847656 C 154.941406 92.8125 155.472656 92.648438 155.96875 92.402344 C 156.382813 92.195313 156.644531 92.285156 156.855469 92.703125 C 157.542969 94.042969 158.253906 95.371094 158.957031 96.699219 C 159.667969 98.039063 160.367188 99.390625 161.105469 100.71875 C 161.546875 101.503906 161.589844 101.574219 160.816406 101.953125 C 159.621094 102.542969 158.410156 103.105469 157.175781 103.609375 C 155.8125 104.160156 154.464844 104.757813 153.039063 105.152344 C 152.203125 105.386719 152.199219 105.371094 152.300781 104.214844 "/>
<g clip-path="url(#clip6)" clip-rule="nonzero">
<path style=" stroke:none;fill-rule:nonzero;fill:rgb(13.299561%,19.599915%,41.598511%);fill-opacity:1;" d="M 31.613281 138.320313 C 30.902344 138.320313 30.195313 138.300781 29.484375 138.328125 C 29.09375 138.339844 28.945313 138.242188 28.945313 137.820313 C 28.960938 132.964844 28.957031 128.105469 28.949219 123.246094 C 28.945313 122.894531 29.0625 122.800781 29.402344 122.804688 C 30.867188 122.816406 32.328125 122.816406 33.789063 122.804688 C 34.105469 122.800781 34.214844 122.898438 34.207031 123.214844 C 34.1875 123.984375 34.1875 124.753906 34.207031 125.523438 C 34.214844 125.859375 34.113281 126.027344 33.757813 125.980469 C 33.738281 125.980469 33.714844 125.980469 33.691406 125.980469 C 32.152344 126.03125 32.152344 126.03125 32.152344 127.535156 C 32.148438 128.863281 32.152344 128.882813 33.453125 128.859375 C 33.925781 128.851563 34.140625 128.941406 34.097656 129.464844 C 34.050781 130.054688 34.058594 130.652344 34.097656 131.242188 C 34.132813 131.726563 33.9375 131.824219 33.492188 131.820313 C 32.148438 131.804688 32.148438 131.824219 32.152344 133.160156 C 32.152344 133.644531 32.167969 134.128906 32.144531 134.609375 C 32.125 134.996094 32.242188 135.179688 32.664063 135.148438 C 33.082031 135.117188 33.507813 135.160156 33.925781 135.136719 C 34.308594 135.113281 34.429688 135.277344 34.421875 135.640625 C 34.40625 136.363281 34.398438 137.089844 34.425781 137.8125 C 34.441406 138.234375 34.261719 138.339844 33.871094 138.328125 C 33.121094 138.304688 32.367188 138.320313 31.613281 138.320313 "/>
</g>
<g clip-path="url(#clip7)" clip-rule="nonzero">
<path style=" stroke:none;fill-rule:nonzero;fill:rgb(13.299561%,19.599915%,41.598511%);fill-opacity:1;" d="M 66.203125 127.917969 C 66.378906 126.730469 66.566406 125.542969 66.726563 124.351563 C 66.78125 123.957031 66.886719 123.578125 66.972656 123.195313 C 67.039063 122.890625 67.152344 122.796875 67.449219 122.804688 C 68.136719 122.820313 68.824219 122.824219 69.511719 122.804688 C 69.902344 122.792969 69.941406 122.941406 69.855469 123.277344 C 69.300781 125.507813 68.742188 127.734375 68.238281 129.972656 C 67.898438 131.464844 67.484375 132.941406 67.605469 134.511719 C 67.691406 135.605469 67.605469 136.707031 67.628906 137.808594 C 67.640625 138.210938 67.515625 138.355469 67.105469 138.332031 C 66.488281 138.304688 65.863281 138.300781 65.246094 138.335938 C 64.808594 138.359375 64.667969 138.21875 64.679688 137.777344 C 64.707031 136.4375 64.632813 135.09375 64.703125 133.757813 C 64.777344 132.40625 64.285156 131.167969 64.0625 129.878906 C 63.910156 128.996094 63.613281 128.140625 63.441406 127.261719 C 63.175781 125.929688 62.914063 124.597656 62.527344 123.292969 C 62.410156 122.898438 62.53125 122.789063 62.921875 122.804688 C 63.476563 122.828125 64.035156 122.859375 64.585938 122.796875 C 65.296875 122.71875 65.519531 123.074219 65.5625 123.683594 C 65.652344 125.109375 65.945313 126.507813 66.203125 127.917969 "/>
</g>
<g clip-path="url(#clip8)" clip-rule="nonzero">
<path style=" stroke:none;fill-rule:nonzero;fill:rgb(13.299561%,19.599915%,41.598511%);fill-opacity:1;" d="M 60.289063 132.1875 C 60.289063 134.035156 60.269531 135.878906 60.304688 137.722656 C 60.3125 138.242188 60.132813 138.355469 59.660156 138.335938 C 58.996094 138.300781 58.328125 138.296875 57.667969 138.335938 C 57.179688 138.363281 57.085938 138.167969 57.089844 137.726563 C 57.101563 134.0625 57.078125 130.394531 57.109375 126.726563 C 57.117188 126.113281 56.941406 125.941406 56.335938 125.96875 C 55.230469 126.011719 55.230469 125.976563 55.230469 124.847656 C 55.230469 124.320313 55.246094 123.792969 55.226563 123.269531 C 55.214844 122.933594 55.320313 122.804688 55.675781 122.804688 C 57.644531 122.820313 59.617188 122.820313 61.585938 122.804688 C 61.980469 122.800781 62.074219 122.949219 62.0625 123.304688 C 62.039063 124.03125 62.035156 124.753906 62.0625 125.480469 C 62.078125 125.898438 61.910156 125.988281 61.519531 125.992188 C 60.289063 125.996094 60.289063 126.011719 60.289063 127.25 C 60.289063 128.894531 60.289063 130.542969 60.289063 132.1875 "/>
</g>
<path style=" stroke:none;fill-rule:nonzero;fill:rgb(13.299561%,19.599915%,41.598511%);fill-opacity:1;" d="M 159.738281 90.371094 C 160.164063 90.601563 160.640625 90.785156 161.09375 90.996094 C 163.589844 92.148438 166.066406 93.34375 168.554688 94.515625 C 169.070313 94.761719 169.59375 94.988281 170.128906 95.191406 C 170.472656 95.316406 170.578125 95.464844 170.28125 95.734375 C 168.507813 97.332031 166.816406 99.039063 164.578125 100.027344 C 164.460938 100.078125 164.359375 100.167969 164.253906 100.238281 C 163.933594 100.445313 163.691406 100.480469 163.460938 100.074219 C 162.777344 98.863281 162.054688 97.675781 161.355469 96.476563 C 160.476563 94.976563 159.625 93.457031 158.722656 91.96875 C 158.339844 91.335938 158.316406 91.207031 158.964844 90.871094 C 159.234375 90.730469 159.359375 90.390625 159.738281 90.371094 "/>
<path style=" stroke:none;fill-rule:nonzero;fill:rgb(13.299561%,19.599915%,41.598511%);fill-opacity:1;" d="M 160.46875 89.539063 C 160.820313 89.066406 161.234375 88.636719 161.433594 88.070313 C 161.550781 87.734375 161.765625 87.617188 162.132813 87.609375 C 166.035156 87.527344 169.914063 87.921875 173.792969 88.246094 C 174.339844 88.292969 174.878906 88.445313 175.429688 88.5 C 175.800781 88.535156 175.839844 88.707031 175.691406 88.96875 C 175.367188 89.558594 175.0625 90.167969 174.675781 90.714844 C 174.113281 91.511719 173.464844 92.25 172.886719 93.035156 C 172.59375 93.433594 172.289063 93.535156 171.8125 93.367188 C 169.574219 92.585938 167.34375 91.78125 165.078125 91.085938 C 163.839844 90.703125 162.609375 90.28125 161.355469 89.9375 C 161.039063 89.847656 160.730469 89.753906 160.46875 89.539063 "/>
<path style=" stroke:none;fill-rule:nonzero;fill:rgb(13.299561%,19.599915%,41.598511%);fill-opacity:1;" d="M 169.253906 86.640625 C 167.015625 86.640625 164.78125 86.628906 162.546875 86.648438 C 162.101563 86.652344 161.882813 86.589844 161.839844 86.070313 C 161.757813 85.015625 161.746094 85.035156 162.800781 84.738281 C 164.746094 84.195313 166.6875 83.632813 168.617188 83.035156 C 169.894531 82.640625 171.191406 82.289063 172.480469 81.917969 C 173.40625 81.648438 174.332031 81.386719 175.25 81.09375 C 175.515625 81.007813 175.621094 81.066406 175.78125 81.285156 C 176.851563 82.753906 176.972656 84.386719 176.695313 86.105469 C 176.632813 86.496094 176.347656 86.429688 176.089844 86.429688 C 173.808594 86.429688 171.53125 86.429688 169.253906 86.429688 C 169.253906 86.5 169.253906 86.570313 169.253906 86.640625 "/>
<path style=" stroke:none;fill-rule:nonzero;fill:rgb(13.299561%,19.599915%,41.598511%);fill-opacity:1;" d="M 143.355469 115.722656 C 142.203125 115.722656 141.054688 115.699219 139.90625 115.734375 C 139.421875 115.746094 139.347656 115.617188 139.480469 115.179688 C 139.949219 113.613281 140.394531 112.035156 140.847656 110.460938 C 141.011719 109.898438 141.199219 109.335938 141.335938 108.765625 C 141.410156 108.453125 141.570313 108.453125 141.816406 108.519531 C 143.875 109.074219 145.984375 108.984375 148.082031 108.972656 C 148.519531 108.96875 148.667969 109.035156 148.570313 109.5 C 148.171875 111.386719 147.800781 113.277344 147.441406 115.167969 C 147.371094 115.53125 147.15625 115.546875 146.871094 115.542969 C 145.699219 115.539063 144.527344 115.542969 143.355469 115.542969 C 143.355469 115.601563 143.355469 115.660156 143.355469 115.722656 "/>
<g clip-path="url(#clip9)" clip-rule="nonzero">
<path style=" stroke:none;fill-rule:nonzero;fill:rgb(13.299561%,19.599915%,41.598511%);fill-opacity:1;" d="M 19.761719 130.597656 C 19.761719 132.96875 19.746094 135.339844 19.773438 137.710938 C 19.777344 138.210938 19.636719 138.367188 19.140625 138.335938 C 18.5 138.292969 17.855469 138.289063 17.214844 138.335938 C 16.6875 138.375 16.546875 138.203125 16.550781 137.683594 C 16.570313 133.882813 16.5625 130.085938 16.5625 126.285156 C 16.5625 125.296875 16.578125 124.308594 16.550781 123.320313 C 16.539063 122.914063 16.664063 122.78125 17.078125 122.800781 C 17.761719 122.832031 18.449219 122.839844 19.132813 122.800781 C 19.625 122.769531 19.777344 122.914063 19.773438 123.417969 C 19.746094 125.808594 19.761719 128.203125 19.761719 130.597656 "/>
</g>
<g clip-path="url(#clip10)" clip-rule="nonzero">
<path style=" stroke:none;fill-rule:nonzero;fill:rgb(13.299561%,19.599915%,41.598511%);fill-opacity:1;" d="M 54.597656 130.558594 C 54.597656 132.933594 54.582031 135.308594 54.609375 137.683594 C 54.617188 138.214844 54.449219 138.363281 53.933594 138.332031 C 53.273438 138.289063 52.601563 138.285156 51.941406 138.332031 C 51.378906 138.367188 51.355469 138.082031 51.355469 137.652344 C 51.367188 133.191406 51.363281 128.726563 51.363281 124.265625 C 51.367188 122.8125 51.367188 122.792969 52.800781 122.820313 C 53.382813 122.832031 54.164063 122.542969 54.496094 122.960938 C 54.78125 123.316406 54.59375 124.054688 54.59375 124.625 C 54.597656 126.601563 54.597656 128.582031 54.597656 130.558594 "/>
</g>
<path style=" stroke:none;fill-rule:nonzero;fill:rgb(13.299561%,19.599915%,41.598511%);fill-opacity:1;" d="M 151.859375 93.578125 C 151.359375 96 150.859375 98.421875 150.363281 100.84375 C 150.023438 102.492188 149.691406 104.144531 149.359375 105.796875 C 149.324219 105.980469 149.285156 106.128906 149.0625 106.171875 C 146.882813 106.597656 144.703125 106.839844 142.511719 106.195313 C 141.933594 106.023438 142.195313 105.671875 142.359375 105.441406 C 142.78125 104.839844 143.265625 104.277344 143.722656 103.699219 C 145.144531 101.886719 146.566406 100.074219 147.988281 98.261719 C 149.234375 96.671875 150.480469 95.078125 151.722656 93.488281 C 151.769531 93.515625 151.816406 93.546875 151.859375 93.578125 "/>
<path style=" stroke:none;fill-rule:nonzero;fill:rgb(13.299561%,19.599915%,41.598511%);fill-opacity:1;" d="M 173.378906 76.625 C 174.632813 75.851563 175.945313 75.347656 177.203125 74.742188 C 179.066406 73.851563 181.023438 73.207031 182.988281 72.585938 C 184.542969 72.09375 184.789063 72.253906 184.789063 73.832031 C 184.789063 74.644531 184.773438 75.457031 184.796875 76.269531 C 184.8125 76.609375 184.6875 76.753906 184.382813 76.898438 C 183.902344 77.132813 183.382813 77.261719 182.890625 77.398438 C 181.089844 77.90625 179.359375 78.613281 177.558594 79.101563 C 177.128906 79.21875 176.839844 79.164063 176.515625 78.804688 C 175.675781 77.863281 174.578125 77.25 173.378906 76.625 "/>
<path style=" stroke:none;fill-rule:nonzero;fill:rgb(13.299561%,19.599915%,41.598511%);fill-opacity:1;" d="M 163.976563 76.292969 C 164.769531 75.4375 165.660156 74.910156 166.527344 74.378906 C 168.777344 72.996094 171.195313 72.007813 173.738281 71.242188 C 175.671875 70.65625 177.59375 70.980469 179.523438 70.945313 C 180.328125 70.933594 181.132813 71.003906 181.949219 71.191406 C 181.007813 71.589844 180.0625 71.972656 179.128906 72.382813 C 177.167969 73.246094 175.195313 74.070313 173.269531 75.011719 C 172.503906 75.386719 171.722656 75.730469 170.949219 76.101563 C 170.78125 76.179688 170.5625 76.199219 170.371094 76.1875 C 168.289063 76.082031 166.210938 76.089844 163.976563 76.292969 "/>
<path style=" stroke:none;fill-rule:nonzero;fill:rgb(13.299561%,19.599915%,41.598511%);fill-opacity:1;" d="M 184.789063 83.179688 C 184.789063 84.125 184.773438 85.070313 184.796875 86.015625 C 184.804688 86.363281 184.6875 86.472656 184.339844 86.46875 C 182.523438 86.441406 180.707031 86.433594 178.890625 86.433594 C 178.546875 86.433594 178.382813 86.335938 178.46875 85.976563 C 178.492188 85.871094 178.488281 85.757813 178.503906 85.648438 C 178.726563 83.964844 178.644531 82.3125 177.914063 80.746094 C 177.796875 80.488281 177.808594 80.414063 178.089844 80.285156 C 178.671875 80.015625 179.269531 79.96875 179.894531 79.960938 C 181.355469 79.949219 182.816406 79.933594 184.277344 79.886719 C 184.703125 79.871094 184.808594 80.011719 184.796875 80.410156 C 184.773438 81.332031 184.789063 82.257813 184.789063 83.179688 "/>
<g clip-path="url(#clip11)" clip-rule="nonzero">
<path style=" stroke:none;fill-rule:nonzero;fill:rgb(13.299561%,19.599915%,41.598511%);fill-opacity:1;" d="M 212.636719 60.957031 C 212.382813 62.15625 212.15625 63.433594 211.824219 64.679688 C 211.628906 65.429688 211.5625 66.191406 211.402344 66.941406 C 211.277344 67.523438 211.097656 67.863281 210.355469 67.699219 C 208.808594 67.355469 208.953125 67.738281 209.242188 66.132813 C 209.519531 64.605469 209.886719 63.089844 210.210938 61.570313 C 210.246094 61.398438 210.277344 61.222656 210.285156 61.050781 C 210.296875 60.835938 210.226563 60.640625 209.980469 60.617188 C 209.75 60.589844 209.675781 60.804688 209.65625 60.964844 C 209.585938 61.511719 209.378906 62.023438 209.265625 62.5625 C 209.015625 63.761719 208.796875 64.96875 208.5625 66.171875 C 208.53125 66.324219 208.480469 66.46875 208.449219 66.621094 C 208.351563 67.117188 208.097656 67.253906 207.574219 67.152344 C 205.808594 66.8125 206.105469 67.011719 206.394531 65.496094 C 206.789063 63.410156 207.296875 61.347656 207.738281 59.269531 C 207.792969 59.011719 207.902344 58.929688 208.140625 58.976563 C 208.742188 59.101563 209.386719 59.0625 209.941406 59.386719 C 210.296875 59.597656 210.675781 59.460938 211.042969 59.488281 C 211.898438 59.546875 212.609375 60.105469 212.617188 60.625 C 212.617188 60.710938 212.628906 60.800781 212.636719 60.957031 "/>
</g>
<path style=" stroke:none;fill-rule:nonzero;fill:rgb(13.299561%,19.599915%,41.598511%);fill-opacity:1;" d="M 201.398438 64.363281 C 201.394531 64.589844 201.292969 64.882813 201.660156 64.921875 C 202.007813 64.957031 202.023438 64.695313 202.0625 64.441406 C 202.273438 62.925781 202.492188 61.410156 202.726563 59.898438 C 202.769531 59.628906 202.691406 59.457031 202.449219 59.390625 C 202.121094 59.308594 202.019531 59.523438 201.996094 59.796875 C 201.871094 61.328125 201.464844 62.824219 201.398438 64.363281 M 202.0625 66.285156 C 201.34375 66.226563 200.613281 66.238281 199.960938 65.820313 C 199.398438 65.457031 199.046875 65.007813 199.128906 64.320313 C 199.339844 62.667969 199.535156 61.011719 199.785156 59.367188 C 199.90625 58.585938 200.375 58.144531 201.152344 58.070313 C 202.203125 57.972656 203.253906 57.953125 204.222656 58.558594 C 204.769531 58.898438 204.992188 59.34375 204.925781 59.925781 C 204.726563 61.621094 204.519531 63.316406 204.257813 65.003906 C 204.105469 65.980469 203.421875 66.34375 202.0625 66.285156 "/>
<path style=" stroke:none;fill-rule:nonzero;fill:rgb(13.299561%,19.599915%,41.598511%);fill-opacity:1;" d="M 170.636719 77.980469 C 171.457031 77.972656 172.046875 78.367188 172.667969 78.625 C 173.1875 78.835938 173.652344 79.179688 174.117188 79.503906 C 174.570313 79.820313 174.542969 80.125 174.03125 80.257813 C 172.898438 80.550781 171.816406 80.984375 170.714844 81.351563 C 168.898438 81.953125 167.09375 82.570313 165.28125 83.183594 C 163.933594 83.640625 162.585938 84.105469 161.238281 84.558594 C 160.855469 84.6875 160.570313 84.355469 160.40625 84.171875 C 160.199219 83.9375 160.605469 83.851563 160.789063 83.734375 C 162.421875 82.714844 164.039063 81.667969 165.695313 80.683594 C 167.210938 79.789063 168.769531 78.964844 170.3125 78.113281 C 170.445313 78.039063 170.59375 77.996094 170.636719 77.980469 "/>
<path style=" stroke:none;fill-rule:nonzero;fill:rgb(13.299561%,19.599915%,41.598511%);fill-opacity:1;" d="M 189.277344 61.316406 C 189.277344 60.460938 189.265625 59.601563 189.28125 58.746094 C 189.285156 58.425781 189.210938 58.238281 188.84375 58.273438 C 188.457031 58.308594 188.308594 58.09375 188.375 57.75 C 188.425781 57.476563 188.277344 57.023438 188.855469 57.105469 C 189.398438 57.183594 189.390625 56.773438 189.414063 56.425781 C 189.480469 55.46875 189.472656 55.46875 190.460938 55.539063 C 190.527344 55.542969 190.59375 55.542969 190.660156 55.542969 C 191.769531 55.515625 191.667969 55.628906 191.558594 56.457031 C 191.488281 56.992188 191.671875 57.242188 192.230469 57.167969 C 192.964844 57.074219 192.765625 57.585938 192.777344 57.976563 C 192.792969 58.53125 192.425781 58.441406 192.101563 58.367188 C 191.648438 58.265625 191.519531 58.433594 191.515625 58.871094 C 191.496094 60.273438 191.460938 61.679688 191.40625 63.085938 C 191.386719 63.605469 191.570313 63.894531 192.117188 63.863281 C 192.570313 63.835938 192.746094 64.054688 192.648438 64.457031 C 192.5625 64.800781 192.757813 65.367188 192.035156 65.292969 C 191.484375 65.234375 190.925781 65.265625 190.378906 65.210938 C 189.488281 65.117188 189.175781 64.773438 189.15625 63.882813 C 189.132813 63.027344 189.152344 62.171875 189.152344 61.316406 C 189.191406 61.316406 189.234375 61.316406 189.277344 61.316406 "/>
<path style=" stroke:none;fill-rule:nonzero;fill:rgb(13.299561%,19.599915%,41.598511%);fill-opacity:1;" d="M 136.609375 96.59375 C 136.253906 95.730469 137.132813 95.570313 137.648438 95.320313 C 139.160156 94.585938 140.664063 93.835938 142.207031 93.15625 C 144.097656 92.320313 146.054688 91.683594 148.023438 91.078125 C 148.296875 90.996094 148.589844 90.988281 148.871094 90.929688 C 149.160156 90.875 149.34375 90.941406 149.382813 91.265625 C 149.394531 91.371094 149.425781 91.503906 149.496094 91.570313 C 150.136719 92.136719 149.753906 92.242188 149.183594 92.460938 C 146.429688 93.535156 143.683594 94.640625 140.957031 95.78125 C 139.726563 96.296875 138.542969 96.914063 137.34375 97.496094 C 136.707031 97.804688 136.605469 97.703125 136.609375 96.59375 "/>
<path style=" stroke:none;fill-rule:nonzero;fill:rgb(13.299561%,19.599915%,41.598511%);fill-opacity:1;" d="M 159.167969 78.933594 C 158.785156 80.035156 158.214844 80.898438 157.796875 81.824219 C 157.605469 82.238281 157.273438 82.597656 157.152344 83.023438 C 156.925781 83.828125 156.445313 84.234375 155.621094 84.277344 C 155.140625 84.296875 154.761719 84.609375 154.328125 84.769531 C 153.960938 84.902344 153.769531 84.941406 153.582031 84.496094 C 153.230469 83.65625 152.789063 82.855469 152.390625 82.039063 C 152.273438 81.800781 152.140625 81.59375 152.535156 81.414063 C 154.34375 80.582031 156.21875 79.90625 158.074219 79.183594 C 158.371094 79.066406 158.703125 79.035156 159.167969 78.933594 "/>
<path style=" stroke:none;fill-rule:nonzero;fill:rgb(13.299561%,19.599915%,41.598511%);fill-opacity:1;" d="M 137.828125 88.921875 C 136.632813 90.410156 135.4375 91.84375 134.46875 93.441406 C 134.183594 93.910156 133.535156 93.851563 133.078125 94.09375 C 132.757813 94.265625 132.371094 94.296875 132.039063 94.492188 C 131.492188 94.808594 131.152344 94.257813 130.746094 94.066406 C 130.308594 93.867188 130.089844 93.660156 130.535156 93.0625 C 131.6875 91.53125 133.132813 90.324219 134.558594 89.082031 C 134.699219 88.957031 134.863281 88.921875 135.046875 88.921875 C 135.949219 88.921875 136.851563 88.921875 137.828125 88.921875 "/>
<path style=" stroke:none;fill-rule:nonzero;fill:rgb(13.299561%,19.599915%,41.598511%);fill-opacity:1;" d="M 138.007813 92.335938 C 138.753906 90.964844 139.722656 89.800781 140.832031 88.753906 C 140.984375 88.613281 141.160156 88.65625 141.332031 88.652344 C 143.898438 88.578125 146.460938 88.503906 149.023438 88.4375 C 149.242188 88.433594 149.585938 88.320313 149.558594 88.710938 C 149.535156 89.007813 149.582031 89.425781 149.101563 89.464844 C 148.375 89.523438 147.671875 89.683594 146.964844 89.847656 C 144.777344 90.359375 142.613281 90.9375 140.480469 91.636719 C 139.675781 91.902344 138.84375 92.09375 138.007813 92.335938 "/>
<path style=" stroke:none;fill-rule:nonzero;fill:rgb(13.299561%,19.599915%,41.598511%);fill-opacity:1;" d="M 194.742188 64.347656 C 194.785156 62.152344 195.160156 59.976563 195.261719 57.785156 C 195.273438 57.523438 195.328125 57.402344 195.621094 57.371094 C 196.207031 57.3125 196.757813 57.507813 197.332031 57.546875 C 197.574219 57.566406 197.503906 57.742188 197.488281 57.894531 C 197.269531 60.339844 197.046875 62.789063 196.84375 65.238281 C 196.816406 65.558594 196.710938 65.671875 196.398438 65.625 C 196.226563 65.601563 196.046875 65.605469 195.871094 65.59375 C 194.675781 65.515625 194.675781 65.515625 194.742188 64.347656 "/>
<path style=" stroke:none;fill-rule:nonzero;fill:rgb(13.299561%,19.599915%,41.598511%);fill-opacity:1;" d="M 167.609375 77.707031 C 166.90625 78.125 166.199219 78.539063 165.503906 78.964844 C 163.332031 80.304688 161.207031 81.710938 159.417969 83.542969 C 159.066406 83.898438 158.703125 83.828125 158.320313 83.808594 C 158.039063 83.792969 158.191406 83.609375 158.246094 83.476563 C 158.707031 82.382813 159.410156 81.429688 160.050781 80.441406 C 160.453125 79.820313 160.988281 79.292969 161.394531 78.675781 C 161.910156 77.890625 162.777344 77.957031 163.507813 77.808594 C 164.828125 77.539063 166.1875 77.496094 167.539063 77.542969 C 167.5625 77.597656 167.585938 77.648438 167.609375 77.707031 "/>
<path style=" stroke:none;fill-rule:nonzero;fill:rgb(13.299561%,19.599915%,41.598511%);fill-opacity:1;" d="M 144.058594 86.164063 C 144.679688 85.585938 145.363281 85.242188 145.992188 84.839844 C 146.722656 84.371094 147.519531 84.007813 148.269531 83.5625 C 148.511719 83.417969 148.632813 83.449219 148.828125 83.617188 C 149.726563 84.375 150.640625 85.109375 151.539063 85.855469 C 151.839844 86.105469 151.855469 86.300781 151.507813 86.582031 C 151.015625 86.976563 150.535156 87.164063 149.894531 87.011719 C 148.085938 86.582031 146.199219 86.6875 144.390625 86.261719 C 144.3125 86.246094 144.234375 86.214844 144.058594 86.164063 "/>
<path style=" stroke:none;fill-rule:nonzero;fill:rgb(13.299561%,19.599915%,41.598511%);fill-opacity:1;" d="M 161.53125 74.277344 C 161.226563 75.285156 160.695313 76.042969 160.3125 76.871094 C 160.246094 77.011719 160.101563 77.011719 159.972656 77.039063 C 158.746094 77.304688 157.53125 77.605469 156.347656 78.019531 C 154.792969 78.558594 153.21875 79.039063 151.753906 79.796875 C 151.480469 79.941406 151.296875 79.84375 151.28125 79.578125 C 151.269531 79.355469 150.710938 79.160156 151.242188 78.910156 C 152.117188 78.496094 152.976563 78.054688 153.855469 77.652344 C 155.464844 76.914063 157.085938 76.191406 158.703125 75.472656 C 159.601563 75.078125 160.511719 74.707031 161.53125 74.277344 "/>
<path style=" stroke:none;fill-rule:nonzero;fill:rgb(13.299561%,19.599915%,41.598511%);fill-opacity:1;" d="M 132.503906 98.175781 C 132.609375 98.777344 132.386719 99.261719 132.472656 99.773438 C 132.515625 100.019531 132.199219 100.195313 131.96875 100.316406 C 130.195313 101.269531 128.507813 102.347656 126.902344 103.558594 C 126.722656 103.699219 126.570313 103.703125 126.363281 103.597656 C 125.242188 103.027344 125.195313 102.703125 126.195313 102.042969 C 128.230469 100.695313 130.3125 99.425781 132.503906 98.175781 "/>
<path style=" stroke:none;fill-rule:nonzero;fill:rgb(13.299561%,19.599915%,41.598511%);fill-opacity:1;" d="M 138.660156 85.425781 C 139.234375 85.046875 139.804688 84.65625 140.386719 84.289063 C 141.785156 83.402344 143.199219 82.542969 144.59375 81.644531 C 144.90625 81.445313 145.289063 81.375 145.550781 81.082031 C 145.648438 80.972656 145.789063 81.027344 145.902344 81.128906 C 146.25 81.449219 146.605469 81.757813 147.003906 82.109375 C 145.316406 83.089844 143.632813 83.992188 142.160156 85.183594 C 141.03125 86.097656 139.890625 85.636719 138.730469 85.589844 C 138.703125 85.535156 138.683594 85.480469 138.660156 85.425781 "/>
<path style=" stroke:none;fill-rule:nonzero;fill:rgb(13.299561%,19.599915%,41.598511%);fill-opacity:1;" d="M 184.363281 69.027344 C 184.355469 68 184.335938 66.972656 184.355469 65.941406 C 184.363281 65.394531 184.125 65.246094 183.617188 65.351563 C 182.972656 65.488281 182.324219 65.550781 181.6875 65.320313 C 182.390625 65.351563 183.09375 65.25 183.785156 65.234375 C 184.472656 65.21875 184.472656 64.988281 184.472656 64.496094 C 184.464844 62.039063 184.480469 59.582031 184.488281 57.128906 L 184.476563 57.144531 C 185.5625 57.582031 185.820313 57.914063 185.808594 59.0625 C 185.785156 60.925781 186.054688 62.773438 186.078125 64.632813 C 186.082031 65.105469 185.9375 65.265625 185.484375 65.203125 C 185.332031 65.183594 185.175781 65.210938 185.019531 65.203125 C 184.609375 65.175781 184.429688 65.324219 184.445313 65.769531 C 184.480469 66.644531 184.460938 67.519531 184.453125 68.398438 C 184.449219 68.609375 184.527344 68.835938 184.363281 69.027344 "/>
<path style=" stroke:none;fill-rule:nonzero;fill:rgb(13.299561%,19.599915%,41.598511%);fill-opacity:1;" d="M 196.535156 57.0625 C 196.445313 57.058594 196.359375 57.054688 196.269531 57.046875 C 195.328125 56.976563 195.121094 56.660156 195.394531 55.746094 C 195.472656 55.484375 195.628906 55.484375 195.847656 55.503906 C 196.261719 55.550781 196.679688 55.601563 197.09375 55.605469 C 197.546875 55.605469 197.695313 55.757813 197.644531 56.226563 C 197.535156 57.226563 197.726563 57.152344 196.535156 57.0625 "/>
<path style=" stroke:none;fill-rule:nonzero;fill:rgb(13.299561%,19.599915%,41.598511%);fill-opacity:1;" d="M 182.222656 57.136719 C 182.691406 56.847656 183.214844 57.019531 183.703125 57.019531 C 184.183594 57.015625 184.359375 56.902344 184.359375 56.394531 C 184.34375 49.917969 184.34375 43.441406 184.359375 36.96875 C 184.359375 36.652344 184.191406 36.445313 184.082031 36.191406 C 184.5625 36.289063 184.453125 36.667969 184.453125 36.980469 C 184.457031 43.109375 184.453125 49.238281 184.457031 55.367188 C 184.457031 55.957031 184.46875 56.550781 184.476563 57.144531 L 184.488281 57.125 C 183.734375 57.128906 182.976563 57.132813 182.222656 57.136719 "/>
<path style=" stroke:none;fill-rule:nonzero;fill:rgb(13.299561%,19.599915%,41.598511%);fill-opacity:1;" d="M 177.308594 69.886719 C 178.605469 69.441406 179.953125 69.378906 181.308594 69.414063 C 179.976563 69.570313 178.640625 69.726563 177.308594 69.886719 "/>
<path style=" stroke:none;fill-rule:nonzero;fill:rgb(13.299561%,19.599915%,41.598511%);fill-opacity:1;" d="M 182.351563 69.359375 C 182.785156 68.898438 183.335938 69.25 183.820313 69.144531 C 183.335938 69.261719 182.855469 69.398438 182.351563 69.359375 "/>
<path style=" stroke:none;fill-rule:nonzero;fill:rgb(13.299561%,19.599915%,41.598511%);fill-opacity:1;" d="M 184.214844 69.132813 C 184.269531 69.09375 184.316406 69.058594 184.367188 69.019531 C 184.367188 69.128906 184.304688 69.148438 184.214844 69.132813 "/>
<path style=" stroke:none;fill-rule:nonzero;fill:rgb(13.299561%,19.599915%,41.598511%);fill-opacity:1;" d="M 100.660156 106.335938 C 100.597656 106.253906 100.5625 106.164063 100.496094 106.121094 C 100.027344 105.816406 99.554688 105.515625 99.074219 105.222656 C 98.933594 105.140625 98.773438 105.15625 98.660156 105.300781 C 98.515625 105.492188 98.554688 105.714844 98.714844 105.824219 C 99.179688 106.140625 99.664063 106.429688 100.160156 106.691406 C 100.5 106.867188 100.519531 106.519531 100.660156 106.335938 "/>
<path style=" stroke:none;fill-rule:nonzero;fill:rgb(13.299561%,19.599915%,41.598511%);fill-opacity:1;" d="M 153.203125 65.269531 C 153.3125 65.171875 153.734375 65.253906 153.578125 64.933594 C 153.34375 64.445313 153.28125 63.925781 153.117188 63.429688 C 153.039063 63.183594 152.847656 63.171875 152.632813 63.210938 C 152.363281 63.257813 152.3125 63.445313 152.398438 63.652344 C 152.59375 64.097656 152.734375 64.554688 152.828125 65.027344 C 152.863281 65.214844 152.972656 65.289063 153.203125 65.269531 "/>
<path style=" stroke:none;fill-rule:nonzero;fill:rgb(13.299561%,19.599915%,41.598511%);fill-opacity:1;" d="M 182.863281 59.445313 C 182.875 59.660156 182.867188 59.816406 182.894531 59.96875 C 182.914063 60.105469 182.8125 60.300781 182.980469 60.378906 C 183.144531 60.457031 183.253906 60.304688 183.371094 60.199219 C 183.691406 59.917969 183.800781 58.867188 183.53125 58.523438 C 183.289063 58.214844 183.082031 58.289063 182.9375 58.597656 C 182.804688 58.886719 182.871094 59.203125 182.863281 59.445313 M 183.746094 62.90625 C 183.738281 62.90625 183.734375 62.90625 183.730469 62.90625 C 183.730469 62.664063 183.742188 62.425781 183.726563 62.1875 C 183.714844 62.03125 183.804688 61.769531 183.539063 61.785156 C 183.3125 61.796875 183.011719 61.890625 182.996094 62.171875 C 182.972656 62.675781 183.003906 63.179688 183.039063 63.679688 C 183.054688 63.894531 183.234375 64.035156 183.449219 64.03125 C 183.691406 64.03125 183.785156 63.847656 183.777344 63.628906 C 183.773438 63.386719 183.757813 63.148438 183.746094 62.90625 "/>
<path style=" stroke:none;fill-rule:nonzero;fill:rgb(13.299561%,19.599915%,41.598511%);fill-opacity:1;" d="M 156.664063 67.242188 C 156.648438 67.226563 156.628906 67.210938 156.621094 67.191406 C 156.449219 66.824219 156.507813 66.203125 156.097656 66.121094 C 155.53125 66.007813 154.929688 66.242188 154.378906 66.484375 C 154.046875 66.632813 154.167969 66.871094 154.238281 67.097656 C 154.339844 67.433594 154.46875 67.757813 154.570313 68.09375 C 154.632813 68.289063 154.660156 68.5 154.402344 68.589844 C 154.144531 68.675781 153.949219 68.539063 153.871094 68.320313 C 153.695313 67.828125 153.574219 67.320313 153.398438 66.824219 C 153.28125 66.492188 153.679688 66.429688 153.910156 66.363281 C 154.417969 66.214844 154.9375 66.105469 155.453125 65.992188 C 156.054688 65.867188 156.152344 65.507813 155.960938 64.992188 C 155.90625 64.847656 155.875 64.695313 155.832031 64.550781 C 155.90625 64.589844 156.050781 64.636719 156.050781 64.664063 C 155.945313 65.597656 156.753906 66.316406 156.664063 67.242188 "/>
<path style=" stroke:none;fill-rule:nonzero;fill:rgb(13.299561%,19.599915%,41.598511%);fill-opacity:1;" d="M 92.445313 124.75 C 92.238281 124.71875 92.050781 124.699219 91.96875 124.964844 C 91.835938 125.402344 91.589844 125.796875 91.40625 126.214844 C 91.191406 126.699219 91.359375 126.824219 91.777344 126.929688 C 92.117188 127.015625 92.457031 127.105469 92.761719 127.304688 C 92.953125 127.429688 93.089844 127.542969 93.007813 127.773438 C 92.917969 128.035156 92.714844 128.003906 92.515625 127.929688 C 92.023438 127.746094 91.53125 127.558594 91.039063 127.371094 C 90.6875 127.238281 90.828125 127.015625 90.925781 126.789063 C 91.1875 126.164063 91.441406 125.539063 91.699219 124.914063 C 91.753906 124.789063 91.792969 124.667969 91.71875 124.539063 C 91.972656 124.578125 92.253906 124.515625 92.445313 124.75 "/>
<path style=" stroke:none;fill-rule:nonzero;fill:rgb(13.299561%,19.599915%,41.598511%);fill-opacity:1;" d="M 130.359375 78.332031 C 129.59375 78.421875 129.15625 79.03125 128.589844 79.4375 C 128.390625 79.578125 128.605469 79.699219 128.679688 79.808594 C 128.921875 80.171875 129.28125 80.441406 129.460938 80.855469 C 129.539063 81.035156 129.613281 81.164063 129.425781 81.304688 C 129.226563 81.457031 129.039063 81.398438 128.90625 81.234375 C 128.5625 80.8125 128.242188 80.371094 127.910156 79.945313 C 127.714844 79.691406 127.941406 79.605469 128.089844 79.488281 C 128.738281 78.984375 129.488281 78.609375 130.042969 77.984375 C 130.234375 78.023438 130.324219 78.148438 130.359375 78.332031 "/>
<path style=" stroke:none;fill-rule:nonzero;fill:rgb(13.299561%,19.599915%,41.598511%);fill-opacity:1;" d="M 103.34375 105.277344 C 102.78125 105.703125 102.5 106.34375 102.121094 106.902344 C 101.953125 107.144531 102.277344 107.269531 102.449219 107.382813 C 102.753906 107.585938 103.082031 107.765625 103.394531 107.960938 C 103.589844 108.078125 103.679688 108.246094 103.539063 108.457031 C 103.402344 108.660156 103.222656 108.648438 103.027344 108.519531 C 102.863281 108.414063 102.679688 108.335938 102.523438 108.222656 C 101.359375 107.390625 101.359375 107.390625 102.257813 106.242188 C 102.523438 105.90625 102.832031 105.597656 102.945313 105.164063 C 103.089844 105.167969 103.238281 105.140625 103.34375 105.277344 "/>
<path style=" stroke:none;fill-rule:nonzero;fill:rgb(13.299561%,19.599915%,41.598511%);fill-opacity:1;" d="M 112.691406 93.46875 C 112.535156 93.007813 113.257813 92.929688 113.128906 92.480469 C 113.449219 92.296875 113.394531 92.671875 113.539063 92.75 C 113.132813 92.839844 113.015625 93.277344 112.679688 93.453125 "/>
<path style=" stroke:none;fill-rule:nonzero;fill:rgb(13.299561%,19.599915%,41.598511%);fill-opacity:1;" d="M 180.855469 62.023438 L 180.863281 64.386719 C 180.6875 63.601563 180.695313 62.8125 180.855469 62.023438 "/>
<path style=" stroke:none;fill-rule:nonzero;fill:rgb(13.299561%,19.599915%,41.598511%);fill-opacity:1;" d="M 156.675781 68.613281 C 156.761719 68.265625 156.765625 67.914063 156.710938 67.558594 C 157.074219 67.921875 157.132813 68.277344 156.675781 68.613281 "/>
<path style=" stroke:none;fill-rule:nonzero;fill:rgb(13.299561%,19.599915%,41.598511%);fill-opacity:1;" d="M 155.84375 64.566406 C 155.671875 64.414063 155.621094 64.21875 155.648438 64 C 155.878906 64.132813 155.917969 64.328125 155.84375 64.566406 "/>
<path style=" stroke:none;fill-rule:nonzero;fill:rgb(13.299561%,19.599915%,41.598511%);fill-opacity:1;" d="M 181.03125 64.902344 C 181.175781 64.941406 181.257813 65.046875 181.320313 65.171875 C 181.128906 65.183594 181.027344 65.09375 181.03125 64.902344 "/>
<path style=" stroke:none;fill-rule:nonzero;fill:rgb(13.299561%,19.599915%,41.598511%);fill-opacity:1;" d="M 182.222656 57.136719 C 182.09375 57.167969 181.960938 57.195313 181.832031 57.222656 C 181.941406 57.109375 182.085938 57.136719 182.222656 57.136719 "/>
<path style=" stroke:none;fill-rule:nonzero;fill:rgb(13.299561%,19.599915%,41.598511%);fill-opacity:1;" d="M 102.539063 104.796875 C 102.433594 104.742188 102.328125 104.6875 102.222656 104.632813 C 102.351563 104.640625 102.488281 104.632813 102.539063 104.796875 "/>
<path style=" stroke:none;fill-rule:nonzero;fill:rgb(13.299561%,19.599915%,41.598511%);fill-opacity:1;" d="M 92.703125 124.945313 C 92.59375 124.964844 92.511719 124.9375 92.496094 124.808594 C 92.566406 124.855469 92.636719 124.902344 92.703125 124.945313 "/>
<path style=" stroke:none;fill-rule:nonzero;fill:rgb(13.299561%,19.599915%,41.598511%);fill-opacity:1;" d="M 102.671875 104.925781 C 102.570313 104.925781 102.535156 104.867188 102.523438 104.78125 C 102.574219 104.828125 102.621094 104.875 102.671875 104.925781 "/>
<path style=" stroke:none;fill-rule:nonzero;fill:rgb(13.299561%,19.599915%,41.598511%);fill-opacity:1;" d="M 113.980469 93.121094 C 113.910156 93.128906 113.859375 93.109375 113.855469 93.027344 C 113.898438 93.058594 113.9375 93.089844 113.980469 93.121094 "/>
<path style=" stroke:none;fill-rule:nonzero;fill:rgb(13.299561%,19.599915%,41.598511%);fill-opacity:1;" d="M 113.851563 93.023438 C 113.757813 93.03125 113.730469 92.972656 113.714844 92.894531 C 113.761719 92.9375 113.804688 92.980469 113.851563 93.023438 "/>
<path style=" stroke:none;fill-rule:nonzero;fill:rgb(13.299561%,19.599915%,41.598511%);fill-opacity:1;" d="M 129.949219 77.773438 L 129.914063 77.78125 L 129.933594 77.757813 "/>
<path style=" stroke:none;fill-rule:nonzero;fill:rgb(13.299561%,19.599915%,41.598511%);fill-opacity:1;" d="M 181.597656 65.304688 L 181.644531 65.28125 L 181.683594 65.320313 C 181.652344 65.316406 181.628906 65.308594 181.597656 65.304688 "/>
<path style=" stroke:none;fill-rule:nonzero;fill:rgb(13.299561%,19.599915%,41.598511%);fill-opacity:1;" d="M 91.511719 124.417969 C 91.453125 124.382813 91.390625 124.347656 91.332031 124.308594 C 91.390625 124.347656 91.453125 124.382813 91.511719 124.417969 "/>
<path style=" stroke:none;fill-rule:nonzero;fill:rgb(13.299561%,19.599915%,41.598511%);fill-opacity:1;" d="M 91.644531 124.511719 C 91.570313 124.53125 91.523438 124.507813 91.523438 124.425781 C 91.5625 124.453125 91.605469 124.484375 91.644531 124.511719 "/>
<path style=" stroke:none;fill-rule:nonzero;fill:rgb(13.299561%,19.599915%,41.598511%);fill-opacity:1;" d="M 102.816406 105.023438 C 102.765625 104.988281 102.710938 104.953125 102.65625 104.914063 C 102.710938 104.953125 102.765625 104.988281 102.816406 105.023438 "/>
<path style=" stroke:none;fill-rule:nonzero;fill:rgb(13.299561%,19.599915%,41.598511%);fill-opacity:1;" d="M 7.53125 103.878906 C 7.515625 103.882813 7.5 103.886719 7.488281 103.890625 C 7.480469 103.871094 7.46875 103.851563 7.46875 103.832031 C 7.484375 103.769531 7.511719 103.761719 7.535156 103.816406 C 7.542969 103.832031 7.53125 103.855469 7.53125 103.878906 "/>
<path style=" stroke:none;fill-rule:nonzero;fill:rgb(13.299561%,19.599915%,41.598511%);fill-opacity:1;" d="M 161.765625 66.367188 C 161.773438 66.542969 161.75 66.683594 161.558594 66.738281 C 161.390625 66.785156 161.246094 66.765625 161.15625 66.609375 C 161.082031 66.476563 160.992188 66.34375 160.960938 66.195313 C 160.625 64.796875 160.304688 63.390625 159.976563 61.988281 C 159.90625 61.683594 159.78125 61.296875 160.1875 61.21875 C 160.5625 61.144531 160.640625 61.566406 160.710938 61.851563 C 160.949219 62.871094 161.160156 63.898438 161.394531 64.917969 C 161.507813 65.40625 161.640625 65.890625 161.765625 66.367188 "/>
<path style=" stroke:none;fill-rule:nonzero;fill:rgb(13.299561%,19.599915%,41.598511%);fill-opacity:1;" d="M 89.34375 126.675781 C 88.808594 126.449219 88.238281 126.222656 87.683594 125.96875 C 87.574219 125.917969 87.570313 125.742188 87.617188 125.605469 C 87.667969 125.457031 87.796875 125.417969 87.933594 125.4375 C 88.523438 125.53125 89.0625 125.777344 89.585938 126.046875 C 89.769531 126.140625 89.71875 126.304688 89.65625 126.449219 C 89.605469 126.5625 89.550781 126.695313 89.34375 126.675781 "/>
<path style=" stroke:none;fill-rule:nonzero;fill:rgb(13.299561%,19.599915%,41.598511%);fill-opacity:1;" d="M 127.4375 78.277344 C 127.429688 78.429688 127.320313 78.496094 127.195313 78.554688 C 127.039063 78.625 126.90625 78.636719 126.789063 78.480469 C 126.476563 78.0625 126.15625 77.648438 125.832031 77.238281 C 125.707031 77.078125 125.648438 76.9375 125.839844 76.789063 C 125.996094 76.671875 126.191406 76.605469 126.320313 76.761719 C 126.695313 77.210938 127.042969 77.683594 127.398438 78.152344 C 127.421875 78.183594 127.425781 78.234375 127.4375 78.277344 "/>
<path style=" stroke:none;fill-rule:nonzero;fill:rgb(13.299561%,19.599915%,41.598511%);fill-opacity:1;" d="M 100.660156 106.335938 C 100.519531 106.519531 100.5 106.867188 100.160156 106.691406 C 99.664063 106.429688 99.179688 106.140625 98.714844 105.824219 C 98.554688 105.714844 98.515625 105.492188 98.660156 105.300781 C 98.773438 105.15625 98.933594 105.140625 99.074219 105.222656 C 99.554688 105.515625 100.027344 105.816406 100.496094 106.121094 C 100.5625 106.164063 100.597656 106.253906 100.660156 106.335938 "/>
<path style=" stroke:none;fill-rule:nonzero;fill:rgb(13.299561%,19.599915%,41.598511%);fill-opacity:1;" d="M 112.679688 93.453125 C 112.003906 94.359375 112.003906 94.359375 112.886719 95.085938 C 113.023438 95.195313 113.15625 95.308594 113.289063 95.421875 C 113.46875 95.582031 113.484375 95.757813 113.3125 95.933594 C 113.160156 96.089844 113.015625 96.0625 112.855469 95.925781 C 112.625 95.726563 112.355469 95.570313 112.144531 95.355469 C 111.917969 95.117188 111.375 94.960938 111.515625 94.636719 C 111.726563 94.140625 112.121094 93.703125 112.601563 93.390625 C 112.609375 93.386719 112.660156 93.441406 112.691406 93.46875 "/>
<path style=" stroke:none;fill-rule:nonzero;fill:rgb(13.299561%,19.599915%,41.598511%);fill-opacity:1;" d="M 109.175781 92.011719 C 109.21875 92.042969 109.3125 92.097656 109.390625 92.164063 C 109.773438 92.484375 110.144531 92.816406 110.535156 93.125 C 110.746094 93.292969 110.703125 93.453125 110.585938 93.628906 C 110.429688 93.859375 110.261719 93.792969 110.089844 93.648438 C 109.703125 93.332031 109.316406 93.019531 108.933594 92.703125 C 108.777344 92.574219 108.753906 92.40625 108.824219 92.230469 C 108.875 92.109375 108.957031 92.003906 109.175781 92.011719 "/>
<path style=" stroke:none;fill-rule:nonzero;fill:rgb(13.299561%,19.599915%,41.598511%);fill-opacity:1;" d="M 153.203125 65.269531 C 152.972656 65.289063 152.863281 65.214844 152.828125 65.027344 C 152.734375 64.554688 152.59375 64.097656 152.398438 63.652344 C 152.3125 63.445313 152.363281 63.257813 152.632813 63.210938 C 152.847656 63.171875 153.039063 63.183594 153.117188 63.429688 C 153.28125 63.925781 153.34375 64.445313 153.578125 64.933594 C 153.734375 65.253906 153.3125 65.171875 153.203125 65.269531 "/>
<path style=" stroke:none;fill-rule:nonzero;fill:rgb(13.299561%,19.599915%,41.598511%);fill-opacity:1;" d="M 183.746094 62.90625 C 183.757813 63.148438 183.773438 63.386719 183.78125 63.628906 C 183.785156 63.847656 183.691406 64.03125 183.449219 64.03125 C 183.234375 64.035156 183.054688 63.894531 183.039063 63.679688 C 183.003906 63.179688 182.972656 62.675781 182.996094 62.171875 C 183.011719 61.890625 183.3125 61.796875 183.539063 61.785156 C 183.804688 61.769531 183.714844 62.03125 183.726563 62.1875 C 183.742188 62.425781 183.730469 62.667969 183.730469 62.90625 C 183.734375 62.90625 183.738281 62.90625 183.746094 62.90625 "/>
<path style=" stroke:none;fill-rule:nonzero;fill:rgb(13.299561%,19.599915%,41.598511%);fill-opacity:1;" d="M 182.863281 59.445313 C 182.871094 59.203125 182.804688 58.886719 182.9375 58.597656 C 183.082031 58.289063 183.289063 58.214844 183.53125 58.523438 C 183.800781 58.867188 183.691406 59.917969 183.371094 60.199219 C 183.253906 60.304688 183.144531 60.457031 182.980469 60.378906 C 182.8125 60.300781 182.914063 60.105469 182.894531 59.96875 C 182.867188 59.816406 182.875 59.660156 182.863281 59.445313 "/>
</g>
</svg>
